<?xml version="1.0" encoding="UTF-8"?>
<svg version="1.1" xmlns="http://www.w3.org/2000/svg" width="1366" height="369">
<path d="M0 0 C3.91608844 0.58145857 6.69096793 1.7541458 10.0625 3.8125 C10.89910156 4.31394531 11.73570312 4.81539062 12.59765625 5.33203125 C15.030999 7.02152288 16.91908423 8.90220053 19 11 C20.87319986 12.27411836 20.87319986 12.27411836 22.75 13.25 C23.8225 13.8275 24.895 14.405 26 15 C26 15.66 26 16.32 26 17 C26.58265625 17.11472656 27.1653125 17.22945312 27.765625 17.34765625 C30.16523135 18.04824062 31.72860933 18.98192595 33.75 20.4375 C34.67039062 21.08525391 34.67039062 21.08525391 35.609375 21.74609375 C36.06828125 22.15988281 36.5271875 22.57367188 37 23 C37 23.66 37 24.32 37 25 C37.515625 25.0825 38.03125 25.165 38.5625 25.25 C42.04455732 26.32140225 44.87200885 28.13523605 48 30 C48 30.66 48 31.32 48 32 C48.66 32.20625 49.32 32.4125 50 32.625 C53.48659949 34.22302477 56.22051539 36.30629215 59.23046875 38.66015625 C60.96624445 40.05953287 60.96624445 40.05953287 63 41 C63 41.66 63 42.32 63 43 C63.54527344 43.09539062 64.09054687 43.19078125 64.65234375 43.2890625 C67.65295582 44.19773371 69.92981261 45.67718527 72.5625 47.375 C73.98755859 48.28378906 73.98755859 48.28378906 75.44140625 49.2109375 C77.57348071 50.70176209 79.19055246 52.16513888 81 54 C82.20361088 54.77062024 83.43374072 55.50148077 84.6875 56.1875 C85.780625 56.785625 86.87375 57.38375 88 58 C88 58.66 88 59.32 88 60 C88.57621094 60.11472656 89.15242188 60.22945312 89.74609375 60.34765625 C92.19218425 61.05562352 93.93139112 62.05371639 96.0625 63.4375 C96.73410156 63.86933594 97.40570313 64.30117187 98.09765625 64.74609375 C99.73523887 65.82548599 101.3680856 66.91205706 103 68 C103 68.66 103 69.32 103 70 C103.86625 70.185625 103.86625 70.185625 104.75 70.375 C107 71 107 71 108.65625 72.08984375 C112.09604663 73.42563144 115.19817245 72.72546148 118.75 72.1875 C126.0723517 71.18982859 133.32752802 70.60877746 140.70703125 70.24609375 C143.79191213 70.1118951 143.79191213 70.1118951 145.89550781 69.51586914 C148.26282189 68.9355751 150.5360719 68.70389577 152.96484375 68.5 C154.4027124 68.37709595 154.4027124 68.37709595 155.86962891 68.25170898 C156.88202637 68.16864502 157.89442383 68.08558105 158.9375 68 C159.97567871 67.91242432 161.01385742 67.82484863 162.08349609 67.73461914 C170.57257466 67.02266187 179.06379554 66.34098781 187.5625 65.75390625 C188.738125 65.67011719 189.91375 65.58632812 191.125 65.5 C192.70667969 65.39171875 192.70667969 65.39171875 194.3203125 65.28125 C197.09814404 65.08699307 197.09814404 65.08699307 200 64 C201.70302858 63.79646344 203.41127718 63.63513237 205.12109375 63.5 C206.14009766 63.4175 207.15910156 63.335 208.20898438 63.25 C209.27439453 63.1675 210.33980469 63.085 211.4375 63 C212.46810547 62.9175 213.49871094 62.835 214.56054688 62.75 C216.64942951 62.58278488 218.73846205 62.41743227 220.82763672 62.25390625 C224.99657521 61.92023717 229.16254318 61.55398436 233.32836914 61.18359375 C235.89572592 61.00716569 238.42758783 60.96735296 241 61 C241 65 241 65 239.63671875 66.5703125 C238.99347656 67.08335938 238.35023438 67.59640625 237.6875 68.125 C233.05790423 71.92640332 228.69473582 75.97051848 224.3203125 80.05859375 C222 82 222 82 220 82 C219.67 82.99 219.34 83.98 219 85 C218.4225 85.268125 217.845 85.53625 217.25 85.8125 C214.61028042 87.20568533 213.30162785 89.05115858 211.4765625 91.36328125 C209.28832044 93.78887232 206.69554711 95.52812439 204.05078125 97.42578125 C201.31919091 99.52260203 198.99648523 101.92071384 196.6015625 104.38671875 C194.53752139 106.4658626 192.38350191 108.29749863 190 110 C189.34 110 188.68 110 188 110 C187.7525 110.598125 187.505 111.19625 187.25 111.8125 C185.81927475 114.31626919 184.4308418 115.48072388 182 117 C181.34 117 180.68 117 180 117 C180 117.66 180 118.32 180 119 C177.03 118.505 177.03 118.505 174 118 C173.67 117.01 173.34 116.02 173 115 C171.68747118 114.29325371 170.34721283 113.63815344 169 113 C162.35272727 109.05818182 162.35272727 109.05818182 161.0625 105.1875 C161.0315625 104.1046875 161.0315625 104.1046875 161 103 C161.66 103 162.32 103 163 103 C163.33 102.01 163.66 101.02 164 100 C168.45714286 96 168.45714286 96 171 96 C171.33 94.68 171.66 93.36 172 92 C167.6248665 92.64493107 163.24991725 93.29110374 158.875 93.9375 C157.6375 94.11990234 156.4 94.30230469 155.125 94.49023438 C153.92617188 94.66748047 152.72734375 94.84472656 151.4921875 95.02734375 C150.39245605 95.18968506 149.29272461 95.35202637 148.15966797 95.51928711 C145.10121753 95.98460073 142.05019972 96.48359596 139 97 C141.36292656 99.52588702 142.66462511 100.88820837 146 102 C146 102.66 146 103.32 146 104 C146.67804688 104.22945313 147.35609375 104.45890625 148.0546875 104.6953125 C151.76355008 106.33823041 154.84641706 108.507518 158.125 110.875 C158.74503906 111.30941406 159.36507812 111.74382812 160.00390625 112.19140625 C163.19822217 114.47894862 165.99111101 116.54184109 168 120 C168.78763809 126.82619678 166.73829286 132.39256072 163 138 C162.34 138 161.68 138 161 138 C160.34 139.32 159.68 140.64 159 142 C158.01 142 157.02 142 156 142 C155.67 142.99 155.34 143.98 155 145 C154.34 145 153.68 145 153 145 C152.7525 145.58265625 152.505 146.1653125 152.25 146.765625 C150.81474554 149.33114236 149.22336987 150.83724798 147 152.75 C146.29875 153.36359375 145.5975 153.9771875 144.875 154.609375 C143 156 143 156 141 156 C140.67 156.99 140.34 157.98 140 159 C139.34 159 138.68 159 138 159 C137.79375 159.5775 137.5875 160.155 137.375 160.75 C135.50711677 163.80653619 132.96920777 165.02052815 130 167 C129.09122716 168.03376166 128.21534906 169.09738775 127.375 170.1875 C124.95916451 173.04835782 124.44000619 173.38571318 121 174 C120.67 174.99 120.34 175.98 120 177 C118.2578125 178.7890625 118.2578125 178.7890625 116.125 180.625 C115.07699219 181.54152344 115.07699219 181.54152344 114.0078125 182.4765625 C112 184 112 184 109 185 C109 185.66 109 186.32 109 187 C107.390625 188.65625 107.390625 188.65625 105.25 190.5 C104.55390625 191.1084375 103.8578125 191.716875 103.140625 192.34375 C101.15539208 193.87976963 99.28127955 194.9723966 97 196 C97 196.66 97 197.32 97 198 C95.390625 199.62109375 95.390625 199.62109375 93.25 201.4375 C92.55390625 202.03433594 91.8578125 202.63117188 91.140625 203.24609375 C85.33853007 208 85.33853007 208 83 208 C82.34 209.32 81.68 210.64 81 212 C80.01 212 79.02 212 78 212 C79.64345027 196.96927778 83.1174848 182.8071998 93 171 C93.99 170.67 94.98 170.34 96 170 C96.35729936 168.67288808 96.68325425 167.33737094 97 166 C98.24324939 163.60597431 99.6175929 161.31887642 101 159 C101.66 159 102.32 159 103 159 C103.11472656 158.41734375 103.22945313 157.8346875 103.34765625 157.234375 C104.04824062 154.83476865 104.98192595 153.27139067 106.4375 151.25 C106.86933594 150.63640625 107.30117188 150.0228125 107.74609375 149.390625 C108.15988281 148.93171875 108.57367188 148.4728125 109 148 C109.66 148 110.32 148 111 148 C111.33 146.68 111.66 145.36 112 144 C112.66 144 113.32 144 114 144 C114.17015625 143.12021484 114.17015625 143.12021484 114.34375 142.22265625 C115.05109381 139.82695013 115.98446384 138.40681588 117.5 136.4375 C119.23647708 134.17099358 120.07490764 132.77527707 121 130 C121.66 130 122.32 130 123 130 C123.08052606 126.13474902 122.87284066 124.01865163 120.31640625 121.03515625 C117.95512921 118.90958601 115.50287541 116.95652502 113 115 C111.71996094 113.85144531 111.71996094 113.85144531 110.4140625 112.6796875 C105.50683314 108.54955604 102.15218164 106.42674777 95.625 106.875 C93.4104013 107.21102633 91.2016103 107.58735826 89 108 C87.82050781 108.15597656 86.64101563 108.31195313 85.42578125 108.47265625 C78.35920433 109.17128087 78.35920433 109.17128087 72 112 C70.26239619 115.61016714 71.31773137 119.41782394 71.875 123.25 C72.86709023 130.38907801 73.40264686 137.47464183 73.75390625 144.671875 C73.88718252 147.78767373 73.88718252 147.78767373 74.48413086 149.90527344 C75.05636035 152.22885558 75.29351956 154.46000703 75.5 156.84375 C75.5825 157.76027344 75.665 158.67679688 75.75 159.62109375 C75.91666667 161.54036458 76.08333333 163.45963542 76.25 165.37890625 C76.3325 166.29542969 76.415 167.21195313 76.5 168.15625 C76.60828125 169.40631836 76.60828125 169.40631836 76.71875 170.68164062 C76.94570476 172.96809314 76.94570476 172.96809314 77.515625 175.02197266 C79.51876983 183.20215381 77.22487079 191.24775478 75 199.125 C74.71382813 200.176875 74.42765625 201.22875 74.1328125 202.3125 C73.43304711 204.87830644 72.72199407 207.44037742 72 210 C71.01 210 70.02 210 69 210 C66.26687205 206.3280113 64.95986479 202.32495857 63.5625 198 C63.24164429 197.01640503 63.24164429 197.01640503 62.91430664 196.01293945 C61.22339919 190.79810289 59.63055618 185.5541112 58.08984375 180.29296875 C57.19365435 177.58512767 56.20554893 174.99321705 55.12890625 172.35546875 C52.83236592 166.69187229 50.9030056 160.9306538 49 155.125 C48.505 153.62646484 48.505 153.62646484 48 152.09765625 C46.64000077 147.98047108 45.28332842 143.86219992 43.9296875 139.74291992 C43.58164062 138.68951416 43.23359375 137.6361084 42.875 136.55078125 C42.56304687 135.60372314 42.25109375 134.65666504 41.9296875 133.6809082 C41.03497103 131.10084477 40.04676991 128.58416546 39 126.0625 C34.46770022 114.78570651 29.5435923 101.86160191 34.3125 89.8125 C36.79515246 85.6747459 36.79515246 85.6747459 39 84 C42.16015625 83.3046875 42.16015625 83.3046875 46.0625 82.875 C46.75408203 82.79717285 47.44566406 82.7193457 48.15820312 82.63916016 C56.41462316 81.76085678 64.70771902 81.3647068 73 81 C72.505 80.54625 72.01 80.0925 71.5 79.625 C70 78 70 78 70 76 C69.18208984 75.62875 69.18208984 75.62875 68.34765625 75.25 C65.50474682 73.73630447 63.02592785 71.91578878 60.4375 70 C57.65162338 67.94366773 54.88140624 65.9209375 52 64 C52 63.34 52 62.68 52 62 C51.1028125 61.814375 51.1028125 61.814375 50.1875 61.625 C48 61 48 61 45 59 C45.45636536 60.396478 45.91519488 61.7921508 46.375 63.1875 C46.64570313 64.00992188 46.91640625 64.83234375 47.1953125 65.6796875 C48.00183704 68.1106082 48.00183704 68.1106082 49.25 70.8125 C50.12637306 73.3685881 49.74387955 74.46549611 49 77 C48.39671875 77.13277344 47.7934375 77.26554687 47.171875 77.40234375 C45.97304688 77.66724609 45.97304688 77.66724609 44.75 77.9375 C43.56664062 78.19853516 43.56664062 78.19853516 42.359375 78.46484375 C40.2310623 78.94759017 38.11605068 79.46661532 36 80 C30.65483557 81.22493351 30.65483557 81.22493351 27.92602539 80.28759766 C25.48915951 78.65848995 25.08508968 77.47537205 24.18359375 74.7109375 C23.89419922 73.85113281 23.60480469 72.99132812 23.30664062 72.10546875 C23.01982422 71.20441406 22.73300781 70.30335937 22.4375 69.375 C21.85362613 67.61172681 21.26899944 65.84870272 20.68359375 64.0859375 C20.40112793 63.22194336 20.11866211 62.35794922 19.82763672 61.46777344 C18.86836369 58.60749856 17.80885522 55.79479504 16.7331543 52.97680664 C15.67157335 50.11446201 14.72713856 47.21630883 13.77246094 44.31689453 C12.44574706 40.33759153 11.02632849 36.39099701 9.625 32.4375 C7.08992105 25.2588195 4.69612613 18.05437078 2.51025391 10.76147461 C1.73257629 7.62384419 1.73257629 7.62384419 0 5 C-0.04063832 3.33382885 -0.042721 1.66611905 0 0 Z " fill="#805226" transform="translate(378,55)"/>
<path d="M0 0 C209.22 0 418.44 0 634 0 C634 3.63 634 7.26 634 11 C424.78 11 215.56 11 0 11 C0 7.37 0 3.74 0 0 Z " fill="#000000" transform="translate(498,255)"/>
<path d="M0 0 C3.93507219 0.60325399 6.37102213 2.56068027 9.5 4.9375 C13.09406048 7.72108828 13.09406048 7.72108828 17.03125 9.94140625 C19.85539152 11.45994266 21.7456794 13.72917632 24 16 C26.20784416 17.71568463 28.41658926 19.37376617 30.6875 21 C31.33396484 21.46857422 31.98042969 21.93714844 32.64648438 22.41992188 C34.76113466 23.95108159 36.8803767 25.47573379 39 27 C40.48592794 28.07256921 41.97160164 29.14549074 43.45703125 30.21875 C45.73920156 31.86740815 48.02167792 33.51562885 50.30541992 35.16210938 C55.66068544 39.02443679 60.99144161 42.91863248 66.30981445 46.83154297 C71.24737705 50.45964951 76.21535225 54.04449344 81.1875 57.625 C101.42350151 72.22128414 101.42350151 72.22128414 106 77 C105.34 77 104.68 77 104 77 C103.896875 78.11375 103.79375 79.2275 103.6875 80.375 C103.2688465 83.81538951 102.4807713 86.97906117 101.45703125 90.2890625 C101.18479736 91.1754541 100.91256348 92.0618457 100.63208008 92.97509766 C100.42349365 93.64331543 100.21490723 94.3115332 100 95 C99.33057373 95.08040527 98.66114746 95.16081055 97.97143555 95.24365234 C94.87636991 95.61737399 91.78194351 95.99616289 88.6875 96.375 C87.63498047 96.50132812 86.58246094 96.62765625 85.49804688 96.7578125 C80.28579006 97.39932103 75.0810473 98.08852707 69.89453125 98.9140625 C68.58705933 99.11829834 68.58705933 99.11829834 67.25317383 99.32666016 C64.62987152 100.11060942 63.56918201 100.75925728 62 103 C60.31284318 112.69951053 62.84906453 123.85828806 64.02636719 133.56274414 C64.37373752 136.42708983 64.71120164 139.29246543 65.046875 142.15820312 C66.08076255 150.90355168 67.16500041 159.62534622 68.59375 168.31616211 C71.87755523 190.01019513 71.87755523 190.01019513 68.5 197.1875 C68.005 197.785625 67.51 198.38375 67 199 C65 198 65 198 63.81640625 194.61328125 C63.39086549 193.18191687 62.97323974 191.74818164 62.5625 190.3125 C61.09658684 185.23035942 59.3810398 180.74303128 57 176 C56.29046572 173.67934277 55.62558736 171.34468108 55 169 C54.21588322 166.45562106 53.42578006 163.91408924 52.625 161.375 C51.02751492 156.30146751 49.46485881 151.2202207 47.9375 146.125 C46.5048316 141.43837624 44.85606092 136.91954745 42.9296875 132.4140625 C41.99588938 129.98932622 41.26570287 127.5455552 40.57128906 125.04296875 C39.41514654 120.90852405 38.16694681 116.80061281 36.9375 112.6875 C36.66873047 111.78193359 36.39996094 110.87636719 36.12304688 109.94335938 C35.86458984 109.07904297 35.60613281 108.21472656 35.33984375 107.32421875 C35.10644287 106.54135498 34.87304199 105.75849121 34.63256836 104.9519043 C34.03804184 102.9513457 34.03804184 102.9513457 33 101 C32.33976529 95.49247245 31.79811793 89.69125639 35.0625 84.9375 C39.22754191 80.78256741 45.25021671 80.33415296 50.83203125 79.5078125 C53.8546164 79.34080896 53.8546164 79.34080896 55 78 C57.52596259 77.76346477 60.03107207 77.57826308 62.5625 77.4375 C63.27341797 77.39431641 63.98433594 77.35113281 64.71679688 77.30664062 C66.47761912 77.20028223 68.2387832 77.09961154 70 77 C69.505 76.54625 69.01 76.0925 68.5 75.625 C67 74 67 74 67 72 C66.18208984 71.62875 66.18208984 71.62875 65.34765625 71.25 C62.50474682 69.73630447 60.02592785 67.91578878 57.4375 66 C54.65162338 63.94366773 51.88140624 61.9209375 49 60 C49 59.34 49 58.68 49 58 C48.443125 57.938125 47.88625 57.87625 47.3125 57.8125 C41.85803188 55.89606525 39.02041541 50.62661089 36 46 C36.27714844 47.0621875 36.55429687 48.124375 36.83984375 49.21875 C37.20598636 50.64576737 37.57185722 52.07285448 37.9375 53.5 C38.11990234 54.19609375 38.30230469 54.8921875 38.49023438 55.609375 C39.70965566 60.39837494 40.47422365 65.08537471 41 70 C35.54538831 71.38529821 30.63281599 72.2396943 25 72 C24.87625 71.195625 24.7525 70.39125 24.625 69.5625 C24.41875 68.716875 24.2125 67.87125 24 67 C23.34 66.67 22.68 66.34 22 66 C21.55175781 64.23779297 21.55175781 64.23779297 21.203125 61.8671875 C20.01774364 55.3706519 17.76287149 49.31143516 15.48916626 43.13504028 C10.86124501 30.55017455 6.6382779 17.91051356 3 5 C3.33 4.67 3.66 4.34 4 4 C2.68 2.68 1.36 1.36 0 0 Z " fill="#D38E4C" transform="translate(381,59)"/>
<path d="M0 0 C5.61 0 11.22 0 17 0 C17.33 12.87 17.66 25.74 18 39 C20.97 34.71 23.94 30.42 27 26 C31.5 20 31.5 20 33.71875 17.07421875 C37.0130264 12.63484284 40.13156646 8.08348867 43.25 3.51953125 C45 1 45 1 46 0 C47.56172745 -0.08685603 49.12729344 -0.10702219 50.69140625 -0.09765625 C51.63564453 -0.09443359 52.57988281 -0.09121094 53.55273438 -0.08789062 C54.54595703 -0.07951172 55.53917969 -0.07113281 56.5625 -0.0625 C57.55958984 -0.05798828 58.55667969 -0.05347656 59.58398438 -0.04882812 C62.05604849 -0.03700007 64.52799518 -0.02051849 67 0 C65.62497219 3.87507836 63.83638686 6.83988207 61.375 10.125 C60.65699219 11.09179688 59.93898438 12.05859375 59.19921875 13.0546875 C58.47347656 14.02664062 57.74773438 14.99859375 57 16 C55.72654008 17.74808958 54.45568237 19.49807796 53.1875 21.25 C49.86404007 25.8197574 46.52820296 30.38034242 43.1875 34.9375 C42.71916748 35.57655273 42.25083496 36.21560547 41.76831055 36.87402344 C41.32269775 37.48149414 40.87708496 38.08896484 40.41796875 38.71484375 C40.00208496 39.29089355 39.58620117 39.86694336 39.15771484 40.46044922 C38 42 38 42 36.05078125 44.12890625 C34.73327704 45.99487366 34.73327704 45.99487366 35.484375 48.32421875 C37.43547441 51.76881437 39.7536941 54.74858761 42.25 57.8125 C43.25063255 59.0619937 44.25063779 60.31199003 45.25 61.5625 C45.72824219 62.15804687 46.20648437 62.75359375 46.69921875 63.3671875 C48.73231688 65.91924461 50.67397499 68.53568912 52.6171875 71.15625 C54.17400191 73.23200255 55.77258874 75.271761 57.375 77.3125 C60.09397671 80.81006511 62.78614294 84.32582891 65.4375 87.875 C66.11683594 88.77992188 66.79617188 89.68484375 67.49609375 90.6171875 C69 93 69 93 69 96 C50.50038834 97.6302532 50.50038834 97.6302532 45.0703125 94.08984375 C43.07314138 91.49512544 41.52975268 88.89180521 40 86 C38.9467993 84.60178528 37.86316931 83.22595899 36.75 81.875 C35.49677047 80.25248937 34.24737741 78.62701401 33 77 C32.5241748 76.3822168 32.04834961 75.76443359 31.55810547 75.12792969 C29.92807334 73.00683977 28.30705668 70.87909635 26.6875 68.75 C25.89520996 67.72108643 25.89520996 67.72108643 25.08691406 66.67138672 C22.48720426 63.23503694 20.32953161 60.15780794 19 56 C18.34 56 17.68 56 17 56 C17 69.2 17 82.4 17 96 C11.39 96 5.78 96 0 96 C0 64.32 0 32.64 0 0 Z " fill="#000000" transform="translate(814,146)"/>
<path d="M0 0 C2.08984375 1.5078125 2.08984375 1.5078125 3.08984375 3.5078125 C3.41984375 1.5278125 3.74984375 -0.4521875 4.08984375 -2.4921875 C6.56908176 -2.51903845 9.04803215 -2.53895297 11.52734375 -2.5546875 C12.23439453 -2.56306641 12.94144531 -2.57144531 13.66992188 -2.58007812 C15.47677934 -2.58872338 17.28371978 -2.54438761 19.08984375 -2.4921875 C20.97044871 -0.61158254 20.21765374 2.62139394 20.21923828 5.12304688 C20.22186676 6.15961174 20.22186676 6.15961174 20.22454834 7.21711731 C20.22896629 9.51195757 20.22602908 11.80672139 20.22265625 14.1015625 C20.22332931 15.68957535 20.22429934 17.27758809 20.22555542 18.86560059 C20.22703232 22.198008 20.22487811 25.53038866 20.22021484 28.86279297 C20.21451755 33.1437976 20.2177966 37.42473955 20.22378731 41.70574188 C20.22739315 44.98614986 20.22625423 48.26654287 20.22365952 51.54695129 C20.22299031 53.12588 20.22381845 54.70481004 20.22613907 56.28373718 C20.22866598 58.48672103 20.2248245 60.68960199 20.21923828 62.89257812 C20.21844269 64.14864868 20.21764709 65.40471924 20.21682739 66.69885254 C20.08984375 69.5078125 20.08984375 69.5078125 19.08984375 70.5078125 C16.7367082 70.58052991 14.38150707 70.59152118 12.02734375 70.5703125 C10.09181641 70.55677734 10.09181641 70.55677734 8.1171875 70.54296875 C7.11816406 70.53136719 6.11914062 70.51976562 5.08984375 70.5078125 C4.42984375 68.5278125 3.76984375 66.5478125 3.08984375 64.5078125 C1.72859375 65.6834375 1.72859375 65.6834375 0.33984375 66.8828125 C-5.73589069 72.1300377 -11.24693307 71.93569932 -19.03515625 72.0078125 C-20.12570312 72.0490625 -21.21625 72.0903125 -22.33984375 72.1328125 C-31.77114306 72.22306417 -37.33844975 69.27843448 -44.49609375 63.375 C-53.69605997 53.13049613 -54.83331332 41.95394628 -54.34765625 28.65625 C-53.64553962 18.04258697 -50.3063064 9.5015688 -42.25390625 2.28125 C-29.99470322 -6.9948803 -13.16681889 -7.47745271 0 0 Z M-27.91015625 14.5078125 C-27.91015625 15.1678125 -27.91015625 15.8278125 -27.91015625 16.5078125 C-28.54953125 16.7759375 -29.18890625 17.0440625 -29.84765625 17.3203125 C-32.24147311 18.39449002 -32.24147311 18.39449002 -32.91015625 21.5078125 C-33.57015625 21.5078125 -34.23015625 21.5078125 -34.91015625 21.5078125 C-37.94717448 28.59418837 -39.20392969 34.17481349 -36.72265625 41.6328125 C-34.29141769 47.44267366 -30.65398954 51.70953474 -24.91015625 54.5078125 C-19.38248132 56.60451678 -13.61516174 56.04838964 -8.22265625 53.9453125 C-2.07675857 50.91996528 0.5290335 46.32991974 3.02734375 40.1328125 C4.89134944 33.95105352 3.11862713 29.0552761 0.77734375 23.2578125 C-2.45824278 17.98500482 -6.80799413 13.53138462 -12.9453125 12 C-18.78336402 11.05870181 -22.56156577 12.07663501 -27.91015625 14.5078125 Z " fill="#000000" transform="translate(725.91015625,172.4921875)"/>
<path d="M0 0 C0.78906738 0.00539795 1.57813477 0.0107959 2.39111328 0.01635742 C10.14654753 0.21909816 16.14656395 2.29320779 22.0625 7.4375 C22.7225 5.7875 23.3825 4.1375 24.0625 2.4375 C29.0125 2.4375 33.9625 2.4375 39.0625 2.4375 C39.0625 26.5275 39.0625 50.6175 39.0625 75.4375 C25.0625 75.4375 25.0625 75.4375 23.0625 74.4375 C22.4375 71.875 22.4375 71.875 22.0625 69.4375 C20.70125 70.613125 20.70125 70.613125 19.3125 71.8125 C13.33456357 76.97526328 8.03809082 76.83347814 0.375 76.875 C-0.67623047 76.90787109 -1.72746094 76.94074219 -2.81054688 76.97460938 C-11.55850355 77.0344896 -17.16767689 74.77893412 -23.6875 69 C-24.43 68.154375 -25.1725 67.30875 -25.9375 66.4375 C-26.783125 65.591875 -27.62875 64.74625 -28.5 63.875 C-36.19117082 54.18801903 -35.98395107 41.17019045 -34.9375 29.4375 C-33.89342438 23.22562563 -31.80992888 18.44887855 -27.9375 13.4375 C-27.15375 12.40625 -26.37 11.375 -25.5625 10.3125 C-18.56946337 2.65345988 -10.08371737 -0.13225605 0 0 Z M-15.9375 26.4375 C-18.91199625 32.06815176 -20.00639284 38.1950726 -18.43359375 44.4375 C-16.41430541 50.52998139 -13.50775015 54.91633154 -7.875 58.25 C-1.07101627 61.00054661 5.25566591 61.4038892 12.140625 58.53515625 C17.7789098 55.31491635 20.92156365 49.95150007 22.6484375 43.82421875 C23.78543484 37.27039448 22.86277628 32.1558846 19.25 26.5625 C18.21251283 25.16853027 17.15273773 23.79061231 16.0625 22.4375 C15.423125 21.633125 14.78375 20.82875 14.125 20 C3.95501096 12.29546285 -8.58973716 17.68775023 -15.9375 26.4375 Z " fill="#000000" transform="translate(921.9375,167.5625)"/>
<path d="M0 0 C3.6826282 2.36451324 6.90865911 4.90865911 10 8 C10.15485204 14.3489336 5.88835153 18.43144076 2 23 C-2.6821074 22.26555178 -6.33290264 19.40541915 -10.22265625 16.8828125 C-16.81143155 12.69412472 -23.41974342 11.78286455 -31.11328125 13.4609375 C-40.98924849 16.82549548 -47.98142505 22.88037349 -53 32 C-55.99351832 39.47878992 -56.53116472 48.19508486 -53.4375 55.75 C-49.10747617 63.98612924 -43.94526792 70.73856344 -35 74 C-23.82165429 77.04353955 -16.03402901 75.38411313 -6 70 C-5.01 69.67 -4.02 69.34 -3 69 C-2.505 67.515 -2.505 67.515 -2 66 C0.125 66 0.125 66 3 67 C6.2781163 70.28595868 8.52078129 73.85900307 10.3125 78.125 C9.95001799 81.45983446 9.4715724 81.8910196 7.0625 84.0625 C5.73041172 85.07149729 4.37487647 86.0501319 3 87 C2.33871094 87.46792969 1.67742187 87.93585938 0.99609375 88.41796875 C-7.03311432 93.77601171 -14.27510724 94.36321531 -23.75 94.375 C-24.7709375 94.39949219 -25.791875 94.42398438 -26.84375 94.44921875 C-39.23088974 94.49637791 -49.53707661 89.91585145 -59 82 C-65.0546698 75.43926825 -69.29209496 68.49444022 -72 60 C-72.33 59.01 -72.66 58.02 -73 57 C-74.08694683 42.64630484 -74.96480347 25.62560404 -65 14 C-64.34 14 -63.68 14 -63 14 C-62.773125 13.443125 -62.54625 12.88625 -62.3125 12.3125 C-60.62449964 9.33840412 -58.53323483 7.27991135 -56 5 C-55.34 5 -54.68 5 -54 5 C-54 4.34 -54 3.68 -54 3 C-52.14985947 2.03391677 -50.29466527 1.0775093 -48.4375 0.125 C-47.40496094 -0.40867188 -46.37242187 -0.94234375 -45.30859375 -1.4921875 C-31.61232838 -7.73393299 -13.16832509 -7.48863392 0 0 Z " fill="#000000" transform="translate(656,150)"/>
<path d="M0 0 C7.46159118 5.42202228 12.98158944 12.11537027 15.13671875 21.22265625 C16.67904066 32.13388993 17.01122882 44.16006627 11.03125 53.78125 C5.22896127 61.25842619 -0.72907282 67.1468977 -9.86328125 70.22265625 C-14.59722624 70.78531428 -19.23001612 70.70072757 -23.98828125 70.53515625 C-25.2309375 70.51259766 -26.47359375 70.49003906 -27.75390625 70.46679688 C-30.7916551 70.40837863 -33.82680404 70.32651387 -36.86328125 70.22265625 C-36.86328125 69.56265625 -36.86328125 68.90265625 -36.86328125 68.22265625 C-37.58902344 68.11824219 -38.31476563 68.01382813 -39.0625 67.90625 C-42.12312316 67.15923598 -44.07799603 66.04716977 -46.67578125 64.28515625 C-47.46597656 63.76050781 -48.25617188 63.23585938 -49.0703125 62.6953125 C-49.95783203 61.96634766 -49.95783203 61.96634766 -50.86328125 61.22265625 C-50.86328125 60.56265625 -50.86328125 59.90265625 -50.86328125 59.22265625 C-51.85328125 58.89265625 -52.84328125 58.56265625 -53.86328125 58.22265625 C-55.1796875 56.3671875 -55.1796875 56.3671875 -56.42578125 54.03515625 C-56.83957031 53.27847656 -57.25335937 52.52179688 -57.6796875 51.7421875 C-60.67323353 45.36978754 -61.25057583 39.92708678 -61.23828125 32.97265625 C-61.23666992 32.03478271 -61.23505859 31.09690918 -61.23339844 30.13061523 C-61.11503428 23.47031029 -60.38272109 18.00459312 -56.86328125 12.22265625 C-56.50492188 11.58972656 -56.1465625 10.95679688 -55.77734375 10.3046875 C-54.73828125 8.59765625 -54.73828125 8.59765625 -52.86328125 6.22265625 C-52.20328125 6.22265625 -51.54328125 6.22265625 -50.86328125 6.22265625 C-50.86328125 5.56265625 -50.86328125 4.90265625 -50.86328125 4.22265625 C-50.20328125 4.22265625 -49.54328125 4.22265625 -48.86328125 4.22265625 C-48.64414063 3.61808594 -48.425 3.01351562 -48.19921875 2.390625 C-46.4104451 -0.51220943 -44.60095923 -1.14216424 -41.48828125 -2.46484375 C-40.53179688 -2.88121094 -39.5753125 -3.29757813 -38.58984375 -3.7265625 C-26.15371077 -8.51928424 -11.16366835 -6.92969864 0 0 Z M-41.86328125 20.22265625 C-44.85630281 25.88837599 -45.81933172 31.8902834 -44.4296875 38.1875 C-42.49474204 44.44903158 -38.62957378 49.09846726 -32.91015625 52.32421875 C-26.57491949 54.99299959 -20.69493676 55.16110539 -14.30078125 52.72265625 C-8.10439682 49.68878636 -4.1016354 45.06055118 -1.36328125 38.78515625 C-0.38661596 31.82641608 -1.24327704 25.33141335 -4.86328125 19.22265625 C-10.45624148 13.7303693 -15.56152781 10.90236823 -23.30078125 9.91015625 C-30.94085666 10.84187276 -36.94457945 14.36544353 -41.86328125 20.22265625 Z " fill="#000000" transform="translate(1116.86328125,173.77734375)"/>
<path d="M0 0 C0.12036664 5.77759884 -0.1679418 11.27959989 -1 17 C-1.845625 17.13535156 -2.69125 17.27070313 -3.5625 17.41015625 C-11.06107714 18.83318168 -17.4910935 20.4476482 -22 27 C-24.56932936 33.05998714 -25.45848488 38.6537083 -25.51171875 45.19140625 C-25.52966995 46.02212143 -25.54762115 46.85283661 -25.56611633 47.70872498 C-25.61970918 50.3266004 -25.65394879 52.94429904 -25.6875 55.5625 C-25.72071831 57.35223789 -25.75521206 59.14195259 -25.79101562 60.93164062 C-25.87777521 65.28777863 -25.93827618 69.64314997 -26 74 C-31.28 74 -36.56 74 -42 74 C-42 50.24 -42 26.48 -42 2 C-37.05 2 -32.1 2 -27 2 C-27 4.31 -27 6.62 -27 9 C-26.35933594 8.51789063 -25.71867188 8.03578125 -25.05859375 7.5390625 C-16.62875019 1.38314097 -10.34743486 -0.37475619 0 0 Z " fill="#000000" transform="translate(803,168)"/>
<path d="M0 0 C-0.33 5.28 -0.66 10.56 -1 16 C-7 18 -7 18 -10.9375 18.6875 C-15.87129999 19.91622414 -19.22407629 22.79043467 -22 27 C-24.55512693 33.06966191 -25.45843561 38.6476575 -25.51171875 45.19140625 C-25.52966995 46.02212143 -25.54762115 46.85283661 -25.56611633 47.70872498 C-25.61970918 50.3266004 -25.65394879 52.94429904 -25.6875 55.5625 C-25.72071831 57.35223789 -25.75521206 59.14195259 -25.79101562 60.93164062 C-25.87777521 65.28777863 -25.93827618 69.64314997 -26 74 C-31.28 74 -36.56 74 -42 74 C-42 50.24 -42 26.48 -42 2 C-37.05 2 -32.1 2 -27 2 C-26.67 3.98 -26.34 5.96 -26 8 C-25.43152344 7.59007812 -24.86304688 7.18015625 -24.27734375 6.7578125 C-16.11029258 1.0586015 -9.87274272 -0.2704861 0 0 Z " fill="#000000" transform="translate(1019,168)"/>
<path d="M0 0 C3.91608844 0.58145857 6.69096793 1.7541458 10.0625 3.8125 C10.89910156 4.31394531 11.73570312 4.81539062 12.59765625 5.33203125 C15.030999 7.02152288 16.91908423 8.90220053 19 11 C20.87319986 12.27411836 20.87319986 12.27411836 22.75 13.25 C23.8225 13.8275 24.895 14.405 26 15 C26 15.66 26 16.32 26 17 C26.58265625 17.11472656 27.1653125 17.22945312 27.765625 17.34765625 C30.16523135 18.04824062 31.72860933 18.98192595 33.75 20.4375 C34.67039062 21.08525391 34.67039062 21.08525391 35.609375 21.74609375 C36.06828125 22.15988281 36.5271875 22.57367188 37 23 C37 23.66 37 24.32 37 25 C37.515625 25.0825 38.03125 25.165 38.5625 25.25 C42.04455732 26.32140225 44.87200885 28.13523605 48 30 C48 30.66 48 31.32 48 32 C48.66 32.20625 49.32 32.4125 50 32.625 C53.48659949 34.22302477 56.22051539 36.30629215 59.23046875 38.66015625 C60.96624445 40.05953287 60.96624445 40.05953287 63 41 C63 41.66 63 42.32 63 43 C63.54527344 43.09539062 64.09054687 43.19078125 64.65234375 43.2890625 C67.65295582 44.19773371 69.92981261 45.67718527 72.5625 47.375 C73.98755859 48.28378906 73.98755859 48.28378906 75.44140625 49.2109375 C77.57348071 50.70176209 79.19055246 52.16513888 81 54 C82.20361088 54.77062024 83.43374072 55.50148077 84.6875 56.1875 C85.780625 56.785625 86.87375 57.38375 88 58 C88 58.66 88 59.32 88 60 C88.57621094 60.11472656 89.15242188 60.22945312 89.74609375 60.34765625 C92.19218425 61.05562352 93.93139112 62.05371639 96.0625 63.4375 C96.73410156 63.86933594 97.40570313 64.30117187 98.09765625 64.74609375 C99.73523887 65.82548599 101.3680856 66.91205706 103 68 C103 68.66 103 69.32 103 70 C103.86625 70.185625 103.86625 70.185625 104.75 70.375 C107 71 107 71 108.65625 72.08984375 C112.09604663 73.42563144 115.19817245 72.72546148 118.75 72.1875 C126.0723517 71.18982859 133.32752802 70.60877746 140.70703125 70.24609375 C143.79191213 70.1118951 143.79191213 70.1118951 145.89550781 69.51586914 C148.26282189 68.9355751 150.5360719 68.70389577 152.96484375 68.5 C154.4027124 68.37709595 154.4027124 68.37709595 155.86962891 68.25170898 C156.88202637 68.16864502 157.89442383 68.08558105 158.9375 68 C159.97567871 67.91242432 161.01385742 67.82484863 162.08349609 67.73461914 C170.57257466 67.02266187 179.06379554 66.34098781 187.5625 65.75390625 C188.738125 65.67011719 189.91375 65.58632812 191.125 65.5 C192.70667969 65.39171875 192.70667969 65.39171875 194.3203125 65.28125 C197.09814404 65.08699307 197.09814404 65.08699307 200 64 C201.70302858 63.79646344 203.41127718 63.63513237 205.12109375 63.5 C206.14009766 63.4175 207.15910156 63.335 208.20898438 63.25 C209.27439453 63.1675 210.33980469 63.085 211.4375 63 C212.46810547 62.9175 213.49871094 62.835 214.56054688 62.75 C216.64942951 62.58278488 218.73846205 62.41743227 220.82763672 62.25390625 C224.99657521 61.92023717 229.16254318 61.55398436 233.32836914 61.18359375 C235.89572592 61.00716569 238.42758783 60.96735296 241 61 C241 65 241 65 239.63671875 66.5703125 C238.99347656 67.08335938 238.35023438 67.59640625 237.6875 68.125 C233.05790423 71.92640332 228.69473582 75.97051848 224.3203125 80.05859375 C222 82 222 82 220 82 C220 81.34 220 80.68 220 80 C220.66 80 221.32 80 222 80 C222 79.34 222 78.68 222 78 C222.66 78 223.32 78 224 78 C224.23460937 77.43796875 224.46921875 76.8759375 224.7109375 76.296875 C226.30663 73.45364109 228.28924543 71.51901873 230.625 69.25 C231.44226563 68.45078125 232.25953125 67.6515625 233.1015625 66.828125 C233.72804688 66.22484375 234.35453125 65.6215625 235 65 C224.87757874 65.45582332 214.82514264 66.36942841 204.75 67.4375 C203.57920898 67.55971924 202.40841797 67.68193848 201.20214844 67.80786133 C200.0577832 67.93185303 198.91341797 68.05584473 197.734375 68.18359375 C196.72600586 68.29243896 195.71763672 68.40128418 194.67871094 68.51342773 C191.60326413 68.92020803 188.56638333 69.40514164 185.50976562 69.92944336 C178.40067721 71.13159325 171.26235979 72.04922135 164.109375 72.9453125 C162.71078651 73.12174802 161.31220677 73.29825292 159.91363525 73.474823 C157.00611471 73.84123069 154.09835361 74.2056559 151.19042969 74.56884766 C147.48262883 75.0322717 143.77572499 75.50249911 140.06899643 75.97441292 C137.19022472 76.33983859 134.31089968 76.70074798 131.43140411 77.06042099 C130.0645985 77.23185737 128.6979896 77.40487034 127.33159637 77.57956314 C108.99777757 79.91871042 108.99777757 79.91871042 104.6640625 77.92578125 C103.99117188 77.39339844 103.31828125 76.86101562 102.625 76.3125 C101.78582031 75.67441406 100.94664062 75.03632813 100.08203125 74.37890625 C99.06496094 73.59386719 98.04789062 72.80882813 97 72 C94.88738497 70.46111678 92.7632786 68.93892902 90.63842773 67.41699219 C80.18381122 59.92416952 69.82306584 52.30122119 59.4765625 44.66015625 C57.8802778 43.48167673 56.28392261 42.30329269 54.6875 41.125 C53.89593506 40.54065186 53.10437012 39.95630371 52.28881836 39.35424805 C45.85106417 34.6095756 39.37489486 29.91965952 32.8737793 25.26220703 C22.35185438 17.70370876 22.35185438 17.70370876 21 15 C19.35793444 14.06167682 17.7134275 13.12727149 16.0546875 12.21875 C12.49254791 10.10584591 9.26296019 7.54256638 6 5 C5.67 5.33 5.34 5.66 5 6 C5.495 6.4125 5.99 6.825 6.5 7.25 C8 9 8 9 8 13 C8.67535153 15.37310521 9.39730343 17.68072137 10.1953125 20.01171875 C10.42356216 20.69322495 10.65181183 21.37473114 10.88697815 22.07688904 C11.6273774 24.28235862 12.37627626 26.48484431 13.125 28.6875 C13.63178594 30.19562625 14.13805192 31.70392733 14.64379883 33.21240234 C16.72485591 39.40179983 18.82213645 45.58233928 21.06640625 51.71484375 C21.34790527 52.48546143 21.6294043 53.2560791 21.91943359 54.05004883 C22.62539931 55.9572334 23.34897398 57.8578755 24.07421875 59.7578125 C25.08797742 63.30810658 25.17294002 66.32619298 25 70 C26.485 70.495 26.485 70.495 28 71 C28 72.65 28 74.3 28 76 C28.73605469 75.855625 29.47210938 75.71125 30.23046875 75.5625 C31.20628906 75.376875 32.18210937 75.19125 33.1875 75 C34.15042969 74.814375 35.11335938 74.62875 36.10546875 74.4375 C38.7934206 74.03122388 41.28771019 73.92066428 44 74 C43.731875 72.9275 43.46375 71.855 43.1875 70.75 C43.00703125 70.02683594 42.8265625 69.30367188 42.640625 68.55859375 C42.17426904 66.69601353 41.70514654 64.83412533 41.234375 62.97265625 C40.83992188 61.40837891 40.83992188 61.40837891 40.4375 59.8125 C40.18871094 58.82894531 39.93992187 57.84539062 39.68359375 56.83203125 C39.05565551 54.23057283 38.50443457 51.62786388 38 49 C42.90475273 53.73562332 45.31932707 57.27641523 47.125 63.9375 C47.45757812 65.14277344 47.79015625 66.34804687 48.1328125 67.58984375 C48.84391909 70.38622236 49.47268806 73.16435311 50 76 C46.36318517 77.70475695 43.03987687 78.30851231 39.0546875 78.70703125 C36.68074808 78.98811363 36.68074808 78.98811363 33.25 80.1875 C30 81 30 81 27.91040039 80.31884766 C25.50741351 78.65994221 25.08221566 77.46655886 24.18359375 74.7109375 C23.89419922 73.85113281 23.60480469 72.99132812 23.30664062 72.10546875 C23.01982422 71.20441406 22.73300781 70.30335937 22.4375 69.375 C21.85362613 67.61172681 21.26899944 65.84870272 20.68359375 64.0859375 C20.40112793 63.22194336 20.11866211 62.35794922 19.82763672 61.46777344 C18.86836369 58.60749856 17.80885522 55.79479504 16.7331543 52.97680664 C15.67157335 50.11446201 14.72713856 47.21630883 13.77246094 44.31689453 C12.44574706 40.33759153 11.02632849 36.39099701 9.625 32.4375 C7.08992105 25.2588195 4.69612613 18.05437078 2.51025391 10.76147461 C1.73257629 7.62384419 1.73257629 7.62384419 0 5 C-0.04063832 3.33382885 -0.042721 1.66611905 0 0 Z " fill="#69492D" transform="translate(378,55)"/>
<path d="M0 0 C4.95 0 9.9 0 15 0 C15 32.34 15 64.68 15 98 C10.05 98 5.1 98 0 98 C0 65.66 0 33.32 0 0 Z " fill="#000000" transform="translate(1029,144)"/>
<path d="M0 0 C-3.30705572 1.93506378 -6.15262425 2.34908 -9.9375 2.75 C-15.07595086 3.52974049 -15.07595086 3.52974049 -19.25 6.375 C-22.30220405 11.18941998 -21.84512615 16.57370725 -21 22 C-19.15892796 29.08929258 -16.64108273 36.01211296 -13.85546875 42.78125 C-13.03887985 44.89916094 -12.57847309 46.83266449 -12.1875 49.0625 C-11.41537513 52.7481898 -10.22487698 55.93992331 -8.6875 59.375 C-5.99644638 65.53505194 -4.3495431 71.80744754 -2.7878418 78.32568359 C-1.66142546 82.92191986 -0.20405432 86.78063635 2 91 C2.625 93.30859375 2.625 93.30859375 3 95.4375 C3.68949619 98.83976807 4.67364301 101.79469153 6.13671875 104.9609375 C8.06696566 109.52016324 9.47714385 114.29228733 11 119 C15.14042015 114.19317977 14.38998509 110.09855992 14 104 C13.16442209 93.21598086 11.84237205 82.48051252 10.5 71.75 C10.37222168 70.7285791 10.24444336 69.7071582 10.11279297 68.65478516 C9.56188288 64.29464492 9.00011407 59.93832858 8.36328125 55.58984375 C6.91654218 45.33954354 6.79797543 35.32570032 7 25 C7.66 24.67 8.32 24.34 9 24 C9.495 26.97 9.495 26.97 10 30 C10.99 30 11.98 30 13 30 C13.50617935 34.52016366 14.00384437 39.04122599 14.5 43.5625 C14.64308594 44.83931641 14.78617187 46.11613281 14.93359375 47.43164062 C15.13662109 49.29272461 15.13662109 49.29272461 15.34375 51.19140625 C15.46943359 52.32779541 15.59511719 53.46418457 15.72460938 54.63500977 C16 58 16 58 15.97851562 61.67553711 C15.99647835 64.45506523 16.25344887 66.37883701 17 69 C17.19547955 70.61134877 17.35992573 72.22664261 17.5 73.84375 C17.5825 74.76027344 17.665 75.67679687 17.75 76.62109375 C17.91666667 78.54036458 18.08333333 80.45963542 18.25 82.37890625 C18.3325 83.29542969 18.415 84.21195312 18.5 85.15625 C18.5721875 85.98962891 18.644375 86.82300781 18.71875 87.68164062 C18.94570476 89.96809314 18.94570476 89.96809314 19.515625 92.02197266 C21.51876983 100.20215381 19.22487079 108.24775478 17 116.125 C16.71382813 117.176875 16.42765625 118.22875 16.1328125 119.3125 C15.43304711 121.87830644 14.72199407 124.44037742 14 127 C13.01 127 12.02 127 11 127 C8.26687205 123.3280113 6.95986479 119.32495857 5.5625 115 C5.34859619 114.34427002 5.13469238 113.68854004 4.91430664 113.01293945 C3.22339919 107.79810289 1.63055618 102.5541112 0.08984375 97.29296875 C-0.80634565 94.58512767 -1.79445107 91.99321705 -2.87109375 89.35546875 C-5.16763408 83.69187229 -7.0969944 77.9306538 -9 72.125 C-9.33 71.12597656 -9.66 70.12695312 -10 69.09765625 C-11.35999923 64.98047108 -12.71667158 60.86219992 -14.0703125 56.74291992 C-14.41835938 55.68951416 -14.76640625 54.6361084 -15.125 53.55078125 C-15.43695313 52.60372314 -15.74890625 51.65666504 -16.0703125 50.6809082 C-16.96502897 48.10084477 -17.95323009 45.58416546 -19 43.0625 C-23.53229978 31.78570651 -28.4564077 18.86160191 -23.6875 6.8125 C-21.15875371 2.59792285 -21.15875371 2.59792285 -19 1 C-16.2834205 0.43596442 -13.74395877 0.03318436 -11 -0.25 C-9.91332031 -0.38535156 -9.91332031 -0.38535156 -8.8046875 -0.5234375 C-5.48697634 -0.90295428 -3.20394434 -1.06798145 0 0 Z " fill="#684423" transform="translate(436,138)"/>
<path d="M0 0 C2 2 2 2 2 6 C2.99 6 3.98 6 5 6 C5.50617935 10.52016366 6.00384437 15.04122599 6.5 19.5625 C6.64308594 20.83931641 6.78617187 22.11613281 6.93359375 23.43164062 C7.06894531 24.67236328 7.20429688 25.91308594 7.34375 27.19140625 C7.46943359 28.32779541 7.59511719 29.46418457 7.72460938 30.63500977 C8 34 8 34 7.97851562 37.67553711 C7.99647835 40.45506523 8.25344887 42.37883701 9 45 C9.19547955 46.61134877 9.35992573 48.22664261 9.5 49.84375 C9.5825 50.76027344 9.665 51.67679688 9.75 52.62109375 C9.91666667 54.54036458 10.08333333 56.45963542 10.25 58.37890625 C10.3325 59.29542969 10.415 60.21195313 10.5 61.15625 C10.5721875 61.98962891 10.644375 62.82300781 10.71875 63.68164062 C10.98320543 65.86156145 11.45736804 67.87634216 12 70 C12.06624507 71.74886981 12.08552595 73.50002748 12.0625 75.25 C12.05347656 76.14203125 12.04445313 77.0340625 12.03515625 77.953125 C12.02355469 78.62859375 12.01195312 79.3040625 12 80 C11.01 80 10.02 80 9 80 C8.505 80.99 8.505 80.99 8 82 C4.99478763 78.99478763 5.38467274 75.43158852 5.0625 71.375 C4.89984318 69.55444355 4.73435454 67.73413844 4.56640625 65.9140625 C4.47762207 64.95145508 4.38883789 63.98884766 4.29736328 62.99707031 C3.79194424 57.90304393 3.14655712 52.8277307 2.5 47.75 C2.37206055 46.7293042 2.24412109 45.7086084 2.11230469 44.65698242 C1.56239033 40.2959928 1.00021758 35.93903536 0.36328125 31.58984375 C-1.07653455 21.38859561 -1.46812647 11.28789562 -1 1 C-0.67 0.67 -0.34 0.34 0 0 Z " fill="#68411E" transform="translate(444,162)"/>
<path d="M0 0 C-0.85690192 7.06944082 -5.4205165 12.75891105 -9.5 18.375 C-10.38202483 19.59598272 -11.26351054 20.81735504 -12.14453125 22.0390625 C-12.60682129 22.67875977 -13.06911133 23.31845703 -13.54541016 23.97753906 C-16.11611286 27.55184272 -18.65099899 31.15138397 -21.1875 34.75 C-21.70103027 35.47791748 -22.21456055 36.20583496 -22.74365234 36.95581055 C-25.37934891 40.69376172 -28.00749891 44.43677491 -30.625 48.1875 C-31.14964844 48.93515625 -31.67429687 49.6828125 -32.21484375 50.453125 C-33.21140681 51.87491738 -34.20646983 53.29777519 -35.19580078 54.72460938 C-36.52040112 56.63314141 -37.85344858 58.53556549 -39.1875 60.4375 C-39.60402832 61.04166748 -40.02055664 61.64583496 -40.44970703 62.26831055 C-42.67003032 65.41725402 -44.74253631 67.91073019 -48 70 C-47.21669577 63.50976498 -45.04310586 58.92599734 -41.5625 53.5 C-41.16683838 52.87657715 -40.77117676 52.2531543 -40.36352539 51.61083984 C-37.39174978 47.13058326 -37.39174978 47.13058326 -34 46 C-33.64270064 44.67288808 -33.31674575 43.33737094 -33 42 C-31.75675061 39.60597431 -30.3824071 37.31887642 -29 35 C-28.34 35 -27.68 35 -27 35 C-26.88527344 34.41734375 -26.77054687 33.8346875 -26.65234375 33.234375 C-25.95175938 30.83476865 -25.01807405 29.27139067 -23.5625 27.25 C-22.91474609 26.32960937 -22.91474609 26.32960937 -22.25390625 25.390625 C-21.84011719 24.93171875 -21.42632812 24.4728125 -21 24 C-20.34 24 -19.68 24 -19 24 C-18.67 22.68 -18.34 21.36 -18 20 C-17.34 20 -16.68 20 -16 20 C-15.8865625 19.41347656 -15.773125 18.82695312 -15.65625 18.22265625 C-14.94890619 15.82695013 -14.01553616 14.40681588 -12.5 12.4375 C-10.76352292 10.17099358 -9.92509236 8.77527707 -9 6 C-8.34 6 -7.68 6 -7 6 C-6.896875 5.38125 -6.79375 4.7625 -6.6875 4.125 C-5.52284543 0.52515862 -3.5849033 0 0 0 Z " fill="#452C14" transform="translate(508,179)"/>
<path d="M0 0 C1.98 0.99 1.98 0.99 4 2 C3.67 2.66 3.34 3.32 3 4 C3.69523344 6.54006399 4.46154531 8.98595635 5.31640625 11.47265625 C5.5699437 12.22856552 5.82348114 12.98447479 6.08470154 13.76329041 C6.90366255 16.19877515 7.73306448 18.63056517 8.5625 21.0625 C9.09505831 22.64365898 9.62696629 24.22503716 10.15820312 25.80664062 C13.35544868 35.30146269 13.35544868 35.30146269 16.74169922 44.72998047 C17.02045395 45.48983749 17.29920868 46.24969452 17.58641052 47.03257751 C18.11252083 48.45984346 18.64772279 49.88380683 19.19398499 51.30348206 C20.8010471 55.67915365 21.2501405 59.35415746 21 64 C22.485 64.495 22.485 64.495 24 65 C24 66.65 24 68.3 24 70 C24.73605469 69.855625 25.47210938 69.71125 26.23046875 69.5625 C27.69419922 69.2840625 27.69419922 69.2840625 29.1875 69 C30.15042969 68.814375 31.11335938 68.62875 32.10546875 68.4375 C34.7934206 68.03122388 37.28771019 67.92066428 40 68 C39.731875 66.9275 39.46375 65.855 39.1875 64.75 C39.00703125 64.02683594 38.8265625 63.30367187 38.640625 62.55859375 C38.17426904 60.69601353 37.70514654 58.83412533 37.234375 56.97265625 C36.83992188 55.40837891 36.83992188 55.40837891 36.4375 53.8125 C36.18871094 52.82894531 35.93992187 51.84539062 35.68359375 50.83203125 C35.05565551 48.23057283 34.50443457 45.62786388 34 43 C38.90475273 47.73562332 41.31932707 51.27641523 43.125 57.9375 C43.45757812 59.14277344 43.79015625 60.34804687 44.1328125 61.58984375 C44.84391909 64.38622236 45.47268806 67.16435311 46 70 C42.36318517 71.70475695 39.03987687 72.30851231 35.0546875 72.70703125 C32.68074808 72.98811363 32.68074808 72.98811363 29.25 74.1875 C26 75 26 75 23.91040039 74.31884766 C21.50741351 72.65994221 21.08221566 71.46655886 20.18359375 68.7109375 C19.89419922 67.85113281 19.60480469 66.99132812 19.30664062 66.10546875 C19.01982422 65.20441406 18.73300781 64.30335937 18.4375 63.375 C17.85362613 61.61172681 17.26899944 59.84870272 16.68359375 58.0859375 C16.26279541 56.79864746 16.26279541 56.79864746 15.83349609 55.48535156 C14.64885826 51.9529517 13.32209093 48.48312907 12 45 C11.48865104 43.50383081 10.98609027 42.00456513 10.5 40.5 C9.6011078 37.73309745 8.63259502 35.12741318 7.5 32.4375 C5.7320767 27.82432514 4.98626871 23.00616719 4.1315918 18.16186523 C3.0430881 12.02960186 1.60701026 6.01774055 0 0 Z " fill="#7F512B" transform="translate(382,61)"/>
<path d="M0 0 C1.2380014 3.57644848 0.74926071 6.33694766 0 10 C-0.66 10 -1.32 10 -2 10 C-1.54177532 6.53058454 -1.10868317 3.32604951 0 0 Z M-2 10 C-2 12.31 -2 14.62 -2 17 C-1.01 17 -0.02 17 1 17 C1.495 17.99 1.495 17.99 2 19 C4.02463255 19.65213292 4.02463255 19.65213292 6 20 C6 20.66 6 21.32 6 22 C6.9590625 22.1546875 6.9590625 22.1546875 7.9375 22.3125 C8.618125 22.539375 9.29875 22.76625 10 23 C10.495 24.485 10.495 24.485 11 26 C13.01508358 26.73323796 13.01508358 26.73323796 15 27 C15 27.66 15 28.32 15 29 C11.29109068 28.58286105 9.14245474 26.61659205 6.33178711 24.30371094 C1.19573331 20.15631383 -2.68041468 17.19742381 -9.5625 17.75 C-11.716125 18.12431426 -13.86257222 18.54216348 -16 19 C-18.33297385 19.29452826 -20.66630501 19.58624134 -23 19.875 C-27.43752493 20.48515968 -30.21178893 21.6579641 -34 24 C-34.99 24 -35.98 24 -37 24 C-37.66 22.35 -38.32 20.7 -39 19 C-39.33 22.63 -39.66 26.26 -40 30 C-40.33 30 -40.66 30 -41 30 C-41.10841951 28.08458862 -41.18578079 26.16740227 -41.25 24.25 C-41.29640625 23.18265625 -41.3428125 22.1153125 -41.390625 21.015625 C-41 18 -41 18 -39.29296875 15.6796875 C-36.74590401 13.81386495 -35.16827671 13.31401205 -32.0625 12.875 C-31.09441406 12.730625 -30.12632812 12.58625 -29.12890625 12.4375 C-28.09636719 12.293125 -27.06382812 12.14875 -26 12 C-24.93652344 11.814375 -23.87304688 11.62875 -22.77734375 11.4375 C-15.78372363 10.23716472 -9.09118049 9.74420591 -2 10 Z " fill="#9C6838" transform="translate(483,144)"/>
<path d="M0 0 C3.43927579 1.2419607 6.25207819 2.55740284 9 5 C9 5.66 9 6.32 9 7 C9.72703125 7.25136719 10.4540625 7.50273438 11.203125 7.76171875 C14.23208063 9.10275078 16.23962092 10.6578912 18.75 12.8125 C24.40888715 17.56812685 30.24997395 22.04442626 36.16113281 26.48168945 C43.34286787 31.91273159 43.34286787 31.91273159 46 35 C46 35.66 46 36.32 46 37 C45.410979 37.0501123 44.82195801 37.10022461 44.21508789 37.15185547 C41.49698087 37.38668458 38.77977972 37.63079109 36.0625 37.875 C35.13630859 37.95363281 34.21011719 38.03226563 33.25585938 38.11328125 C28.02597847 38.59039319 23.02553147 39.34178431 17.91821289 40.56298828 C14.97723197 41.23300939 12.04328596 41.43764765 9.04296875 41.65625 C6.73634661 42.04436233 5.0338168 42.86654704 3 44 C4.0234375 42.10546875 4.0234375 42.10546875 6 40 C8.6110572 39.25357195 10.96527764 38.71995747 13.625 38.3125 C18.18420457 37.91812556 18.18420457 37.91812556 22 36 C24.52596259 35.76346477 27.03107207 35.57826308 29.5625 35.4375 C30.62887695 35.37272461 30.62887695 35.37272461 31.71679688 35.30664062 C33.47761912 35.20028223 35.2387832 35.09961154 37 35 C36.505 34.54625 36.01 34.0925 35.5 33.625 C34 32 34 32 34 30 C33.45472656 29.7525 32.90945313 29.505 32.34765625 29.25 C29.50474682 27.73630447 27.02592785 25.91578878 24.4375 24 C21.65162338 21.94366773 18.88140624 19.9209375 16 18 C16 17.34 16 16.68 16 16 C15.443125 15.938125 14.88625 15.87625 14.3125 15.8125 C8.91389878 13.91569417 5.91418442 8.64110852 3 4 C2.34 4.66 1.68 5.32 1 6 C0.67 4.02 0.34 2.04 0 0 Z " fill="#B77B43" transform="translate(414,101)"/>
<path d="M0 0 C0.96679688 0.00902344 1.93359375 0.01804687 2.9296875 0.02734375 C3.65414062 0.03894531 4.37859375 0.05054687 5.125 0.0625 C5.125 4.0625 5.125 4.0625 3.76171875 5.6328125 C3.11847656 6.14585938 2.47523438 6.65890625 1.8125 7.1875 C-2.81709577 10.98890332 -7.18026418 15.03301848 -11.5546875 19.12109375 C-13.875 21.0625 -13.875 21.0625 -15.875 21.0625 C-15.875 20.4025 -15.875 19.7425 -15.875 19.0625 C-15.215 19.0625 -14.555 19.0625 -13.875 19.0625 C-13.875 18.4025 -13.875 17.7425 -13.875 17.0625 C-13.215 17.0625 -12.555 17.0625 -11.875 17.0625 C-11.64039063 16.50046875 -11.40578125 15.9384375 -11.1640625 15.359375 C-9.56837 12.51614109 -7.58575457 10.58151873 -5.25 8.3125 C-4.43273437 7.51328125 -3.61546875 6.7140625 -2.7734375 5.890625 C-2.14695312 5.28734375 -1.52046875 4.6840625 -0.875 4.0625 C-10.99742126 4.51832332 -21.04985736 5.43192841 -31.125 6.5 C-32.88118652 6.68332886 -32.88118652 6.68332886 -34.67285156 6.87036133 C-40.2652537 7.47629676 -45.80145704 8.18608309 -51.34375 9.15234375 C-55.3179497 9.8416046 -59.07821916 10.29399423 -63.125 10.1875 C-64.49398437 10.16042969 -64.49398437 10.16042969 -65.890625 10.1328125 C-66.54546875 10.10960938 -67.2003125 10.08640625 -67.875 10.0625 C-64.875 8.0625 -64.875 8.0625 -62.875 8.0625 C-62.875 7.4025 -62.875 6.7425 -62.875 6.0625 C-55.8849969 5.3055181 -48.89657138 4.77513227 -41.87890625 4.34375 C-38.82728528 4.17238072 -38.82728528 4.17238072 -35.875 3.0625 C-34.1015206 2.85878594 -32.32299516 2.69753545 -30.54296875 2.5625 C-28.97385742 2.43875 -28.97385742 2.43875 -27.37304688 2.3125 C-25.73432617 2.18875 -25.73432617 2.18875 -24.0625 2.0625 C-21.90997394 1.89820463 -19.75762213 1.7316072 -17.60546875 1.5625 C-16.65051514 1.4903125 -15.69556152 1.418125 -14.71166992 1.34375 C-1.0317829 -0.01258272 -1.0317829 -0.01258272 0 0 Z " fill="#64482B" transform="translate(613.875,115.9375)"/>
<path d="M0 0 C-0.33 0.66 -0.66 1.32 -1 2 C-3.11035156 2.47070312 -3.11035156 2.47070312 -5.890625 2.78125 C-6.90366699 2.89992432 -7.91670898 3.01859863 -8.96044922 3.14086914 C-10.04600098 3.25938232 -11.13155273 3.37789551 -12.25 3.5 C-14.46630826 3.75772156 -16.68245654 4.01682289 -18.8984375 4.27734375 C-19.96288086 4.40093262 -21.02732422 4.52452148 -22.12402344 4.65185547 C-25.38813055 5.04698422 -28.6305634 5.53014412 -31.875 6.0625 C-36.58029963 6.82123061 -41.29373796 7.39243915 -46.03125 7.90234375 C-55.64242521 8.95394531 -65.2469047 10.05947394 -74.85058594 11.17724609 C-77.62945995 11.50051884 -80.40847503 11.82255912 -83.1875 12.14453125 C-92.6542455 13.24399606 -102.11537176 14.37304584 -111.56787109 15.58935547 C-116.70063132 16.20347574 -121.84456268 16.62896474 -127 17 C-127.33 16.34 -127.66 15.68 -128 15 C-127.13715393 14.89168854 -126.27430786 14.78337708 -125.38531494 14.67178345 C-117.20657046 13.64468374 -109.02812416 12.61524686 -100.84999466 11.58326149 C-96.64673638 11.05294053 -92.44337288 10.52348642 -88.23974609 9.99609375 C-84.17404572 9.48597175 -80.10865174 8.97346777 -76.0434494 8.45939255 C-74.50162938 8.26482731 -72.9597054 8.07108386 -71.4176712 7.87822342 C-63.46342384 6.88284525 -55.54481968 5.79815795 -47.64312744 4.43618774 C-43.78045227 3.79874153 -39.90750304 3.34550777 -36.015625 2.9296875 C-35.2303241 2.84373322 -34.44502319 2.75777893 -33.63592529 2.66921997 C-31.99949499 2.49113462 -30.36287581 2.31477659 -28.72607422 2.14013672 C-26.23989798 1.87391828 -23.75473241 1.59937475 -21.26953125 1.32421875 C-19.66411648 1.15054195 -18.0586494 0.97734789 -16.453125 0.8046875 C-15.7227301 0.72346649 -14.99233521 0.64224548 -14.23980713 0.55856323 C-9.46722164 0.05759593 -4.79911435 -0.06952303 0 0 Z " fill="#986A3D" transform="translate(614,119)"/>
<path d="M0 0 C-3.30705572 1.93506378 -6.15262425 2.34908 -9.9375 2.75 C-15.07595086 3.52974049 -15.07595086 3.52974049 -19.25 6.375 C-22.85939051 11.93723238 -21.51991115 19.2728014 -20.34765625 25.421875 C-19.83376226 27.6410789 -19.2968361 29.8551055 -18.734375 32.0625 C-17.90597541 35.37609836 -17.39397065 38.61185241 -17 42 C-17.66 42 -18.32 42 -19 42 C-19.81542431 39.91780951 -20.62723189 37.83420239 -21.4375 35.75 C-21.88996094 34.58984375 -22.34242188 33.4296875 -22.80859375 32.234375 C-25.66760701 24.47285704 -26.90447004 14.66123319 -23.6875 6.8125 C-21.15875371 2.59792285 -21.15875371 2.59792285 -19 1 C-16.2834205 0.43596442 -13.74395877 0.03318436 -11 -0.25 C-9.91332031 -0.38535156 -9.91332031 -0.38535156 -8.8046875 -0.5234375 C-5.48697634 -0.90295428 -3.20394434 -1.06798145 0 0 Z " fill="#81542A" transform="translate(436,138)"/>
<path d="M0 0 C3.91608844 0.58145857 6.69096793 1.7541458 10.0625 3.8125 C10.89910156 4.31394531 11.73570312 4.81539062 12.59765625 5.33203125 C15.030999 7.02152288 16.91908423 8.90220053 19 11 C20.87319986 12.27411836 20.87319986 12.27411836 22.75 13.25 C23.8225 13.8275 24.895 14.405 26 15 C26 15.66 26 16.32 26 17 C26.639375 17.103125 27.27875 17.20625 27.9375 17.3125 C28.618125 17.539375 29.29875 17.76625 30 18 C30.33 18.99 30.66 19.98 31 21 C26.44290102 19.75715482 24.24477866 18.34310529 21 15 C19.32336511 14.03271064 17.6446287 13.06810405 15.94140625 12.1484375 C13.00012605 10.40852527 10.37256027 8.29374135 7.69921875 6.171875 C6.06961751 4.81075568 6.06961751 4.81075568 4 5 C4.18175781 5.60996826 4.36351562 6.21993652 4.55078125 6.84838867 C5.37418951 9.62607199 6.18717922 12.40670099 7 15.1875 C7.28617187 16.14720703 7.57234375 17.10691406 7.8671875 18.09570312 C8.13789063 19.02705078 8.40859375 19.95839844 8.6875 20.91796875 C9.06455078 22.19837036 9.06455078 22.19837036 9.44921875 23.50463867 C10.01786865 26.08095545 10.09883894 28.37047227 10 31 C8.13977404 27.53672217 6.86134384 23.95635813 5.5625 20.25 C4.16954045 16.28130162 2.75462596 12.3403899 1.1875 8.4375 C0.11427706 5.33080203 -0.30380846 3.24062352 0 0 Z " fill="#67472B" transform="translate(378,55)"/>
<path d="M0 0 C-5.02113604 6.13694405 -14.82190318 6.05101517 -22.125 7.125 C-23.86523438 7.39763672 -23.86523438 7.39763672 -25.640625 7.67578125 C-33.00460227 8.77131702 -40.55508073 9.83379355 -48 9 C-48.66 8.34 -49.32 7.68 -50 7 C-37.92234022 5.04819054 -25.84329522 3.10285742 -13.75 1.25 C-12.9362793 1.12262451 -12.12255859 0.99524902 -11.28417969 0.86401367 C-7.48464099 0.28843599 -3.85691269 -0.15427651 0 0 Z " fill="#7C5C3D" transform="translate(559,142)"/>
<path d="M0 0 C0.99 0.33 1.98 0.66 3 1 C1.71937515 2.7074998 0.38232443 4.37373596 -1 6 C-1.66 6 -2.32 6 -3 6 C-3.33 6.99 -3.66 7.98 -4 9 C-4.66 9 -5.32 9 -6 9 C-6.309375 9.86625 -6.309375 9.86625 -6.625 10.75 C-8.49288323 13.80653619 -11.03079223 15.02052815 -14 17 C-14.90877284 18.03376166 -15.78465094 19.09738775 -16.625 20.1875 C-19.04083549 23.04835782 -19.55999381 23.38571318 -23 24 C-23.33 24.99 -23.66 25.98 -24 27 C-25.7421875 28.75390625 -25.7421875 28.75390625 -27.875 30.5625 C-28.92300781 31.46162109 -28.92300781 31.46162109 -29.9921875 32.37890625 C-32 34 -32 34 -35 36 C-35.99 35.67 -36.98 35.34 -38 35 C-37.278125 34.443125 -36.55625 33.88625 -35.8125 33.3125 C-33.01478456 31.01215619 -30.55943951 28.56299429 -28 26 C-25.41293368 23.52338549 -22.80094762 21.07372421 -20.1875 18.625 C-19.51396484 17.99078125 -18.84042969 17.3565625 -18.14648438 16.703125 C-14.68928213 13.46096404 -11.20583917 10.24870149 -7.67578125 7.0859375 C-6.72505737 6.23201416 -6.72505737 6.23201416 -5.75512695 5.36083984 C-4 4 -4 4 -1 3 C-0.67 2.01 -0.34 1.02 0 0 Z " fill="#B08252" transform="translate(522,205)"/>
<path d="M0 0 C1.98 0.99 1.98 0.99 4 2 C3.67 2.66 3.34 3.32 3 4 C3.69523344 6.54006399 4.46154531 8.98595635 5.31640625 11.47265625 C5.5699437 12.22856552 5.82348114 12.98447479 6.08470154 13.76329041 C6.90366255 16.19877515 7.73306448 18.63056517 8.5625 21.0625 C9.09505831 22.64365898 9.62696629 24.22503716 10.15820312 25.80664062 C12.30736372 32.18254681 14.45824159 38.55391066 16.77685547 44.87060547 C17.06012192 45.64850937 17.34338837 46.42641327 17.63523865 47.22789001 C18.17607395 48.70657506 18.72459828 50.18247732 19.28187561 51.65504456 C21.11106759 56.66679723 21.11106759 56.66679723 20 60 C16.99052795 55.45235334 15.97390906 51.21157559 14.84375 45.9375 C13.96374906 42.87379303 12.668196 40.69842558 11 38 C10.05078125 35.4296875 10.05078125 35.4296875 9.3125 32.875 C9.06113281 32.02679688 8.80976563 31.17859375 8.55078125 30.3046875 C8 28 8 28 8 25 C7.34 25 6.68 25 6 25 C5.18553916 21.77132467 4.37378011 18.5419759 3.5625 15.3125 C3.33240234 14.40048828 3.10230469 13.48847656 2.86523438 12.54882812 C2.64287109 11.66259766 2.42050781 10.77636719 2.19140625 9.86328125 C1.98717041 9.05157471 1.78293457 8.23986816 1.57250977 7.40356445 C0.98704917 4.94562862 0.48063245 2.48037229 0 0 Z " fill="#926032" transform="translate(382,61)"/>
<path d="M0 0 C0.495 0.680625 0.99 1.36125 1.5 2.0625 C4.19957111 5.23449606 7.13176735 7.67893296 10.390625 10.25390625 C12 12 12 12 12 16 C9.525 15.505 9.525 15.505 7 15 C6.67 14.01 6.34 13.02 6 12 C4.68747118 11.29325371 3.34721283 10.63815344 2 10 C0.75333773 9.23618066 -0.47484625 8.441736 -1.6875 7.625 C-2.28949219 7.22539062 -2.89148438 6.82578125 -3.51171875 6.4140625 C-5.31772078 4.69812356 -5.61315581 3.42422357 -6 1 C-4.02 0.67 -2.04 0.34 0 0 Z " fill="#9D6839" transform="translate(545,158)"/>
<path d="M0 0 C1.134375 0.020625 2.26875 0.04125 3.4375 0.0625 C3.9325 1.5475 3.9325 1.5475 4.4375 3.0625 C3.848479 3.1126123 3.25945801 3.16272461 2.65258789 3.21435547 C-0.06551913 3.44918458 -2.78272028 3.69329109 -5.5 3.9375 C-6.42619141 4.01613281 -7.35238281 4.09476563 -8.30664062 4.17578125 C-13.53652153 4.65289319 -18.53696853 5.40428431 -23.64428711 6.62548828 C-26.58526803 7.29550939 -29.51921404 7.50014765 -32.51953125 7.71875 C-34.82615339 8.10686233 -36.5286832 8.92904704 -38.5625 10.0625 C-37.5390625 8.16796875 -37.5390625 8.16796875 -35.5625 6.0625 C-32.9514428 5.31607195 -30.59722236 4.78245747 -27.9375 4.375 C-23.37829543 3.98062556 -23.37829543 3.98062556 -19.5625 2.0625 C-16.3526307 1.79251099 -13.15019141 1.61638563 -9.93359375 1.45703125 C-6.19714911 1.24825111 -3.57946287 0.06279759 0 0 Z " fill="#916A44" transform="translate(455.5625,134.9375)"/>
<path d="M0 0 C4.92973508 4.75974422 7.32228092 8.30013065 9.125 15 C9.45757812 16.216875 9.79015625 17.43375 10.1328125 18.6875 C10.77010653 21.12184835 11.40121242 23.55596907 12 26 C9.6875 26 9.6875 26 7 25 C3.21956852 17.29373584 1.62623457 8.39198406 0 0 Z " fill="#5D4125" transform="translate(416,104)"/>
<path d="M0 0 C0.66 0 1.32 0 2 0 C2.31453125 0.97839844 2.6290625 1.95679687 2.953125 2.96484375 C5.07247395 9.48098887 7.25036877 15.80753623 10.1640625 22.01953125 C11.01818887 24.04309233 11.56580996 25.98760433 12.0625 28.125 C12.87770355 32.02975891 12.87770355 32.02975891 14.625 35.5625 C16.1197132 39.29928301 16.24401454 42.01442917 16 46 C13.82293857 42.73440785 12.7404361 39.50903163 11.5625 35.8125 C9.57329535 29.6823851 9.57329535 29.6823851 7.375 23.625 C6.07159309 20.18874541 4.90352661 16.73406551 3.76171875 13.2421875 C3.00348902 11.01027026 2.16909805 8.82078654 1.3125 6.625 C0 3 0 3 0 0 Z " fill="#654521" transform="translate(388,86)"/>
<path d="M0 0 C-0.645477 7.90709331 -2.86997139 15.39133967 -5 23 C-5.99 23 -6.98 23 -8 23 C-8.79953138 19.71303767 -9.09658936 18.28976808 -8 15 C-7.49597656 14.38511719 -6.99195313 13.77023438 -6.47265625 13.13671875 C-4.69544628 10.55811436 -4.57946269 8.91278203 -4.4375 5.8125 C-4.30859375 3.14453125 -4.30859375 3.14453125 -4 1 C-2 0 -2 0 0 0 Z " fill="#885F38" transform="translate(455,242)"/>
<path d="M0 0 C4.28931847 1.47198014 7.51414878 3.65102452 11.125 6.375 C12.67574219 7.53128906 12.67574219 7.53128906 14.2578125 8.7109375 C16.65961151 10.71585804 18.41108387 12.32478407 20 15 C20.26274852 18.7441664 20.18823797 21.43528609 19 25 C18.34 25 17.68 25 17 25 C16.98582031 24.34773438 16.97164062 23.69546875 16.95703125 23.0234375 C16.60625468 16.59569379 15.80205023 13.37520132 11 9 C7.85011127 7.13076797 7.85011127 7.13076797 5 6 C5 5.34 5 4.68 5 4 C4.360625 3.896875 3.72125 3.79375 3.0625 3.6875 C2.381875 3.460625 1.70125 3.23375 1 3 C0.67 2.01 0.34 1.02 0 0 Z " fill="#583F25" transform="translate(526,160)"/>
<path d="M0 0 C-3.66666667 3.66666667 -7.33333333 7.33333333 -11 11 C-11.7115625 11.7734375 -12.423125 12.546875 -13.15625 13.34375 C-15 15 -15 15 -18.25 15.25 C-19.1575 15.1675 -20.065 15.085 -21 15 C-20.34 14.67 -19.68 14.34 -19 14 C-18.67 13.01 -18.34 12.02 -18 11 C-13.54285714 7 -13.54285714 7 -11 7 C-10.814375 6.236875 -10.62875 5.47375 -10.4375 4.6875 C-8.44506753 0.96251756 -4.16816788 -2.08408394 0 0 Z " fill="#583F23" transform="translate(560,144)"/>
<path d="M0 0 C6.74706057 4.08339137 13.07554047 8.49572373 19.27294922 13.35449219 C23.70084484 16.81307732 28.2600811 19.9870283 33 23 C32.01 23.66 31.02 24.32 30 25 C28 23.625 28 23.625 26 22 C26 21.34 26 20.68 26 20 C24.35 19.34 22.7 18.68 21 18 C21 17.34 21 16.68 21 16 C20.27683594 15.73832031 19.55367188 15.47664063 18.80859375 15.20703125 C11.90856642 12.24165094 5.5108056 7.075742 0 2 C0 1.34 0 0.68 0 0 Z " fill="#BA8958" transform="translate(404,75)"/>
<path d="M0 0 C3.93507219 0.60325399 6.37102213 2.56068027 9.5 4.9375 C13.19419495 7.76642181 13.19419495 7.76642181 17.203125 10.08984375 C19.87781347 11.44463161 21.24808663 13.62240328 23 16 C22.34 16.33 21.68 16.66 21 17 C5.49110081 6.57404795 5.49110081 6.57404795 0 1 C0 0.67 0 0.34 0 0 Z " fill="#AC7F53" transform="translate(381,59)"/>
<path d="M0 0 C1.32 0.33 2.64 0.66 4 1 C5.01094544 4.39267194 6.00680051 7.78959455 7 11.1875 C7.28617187 12.14720703 7.57234375 13.10691406 7.8671875 14.09570312 C8.13789063 15.02705078 8.40859375 15.95839844 8.6875 16.91796875 C9.06455078 18.19837036 9.06455078 18.19837036 9.44921875 19.50463867 C10.01786865 22.08095545 10.09883894 24.37047227 10 27 C8.15347092 23.553713 6.86324858 19.99592822 5.5625 16.3125 C4.90894531 14.46205078 4.90894531 14.46205078 4.2421875 12.57421875 C2.78959539 8.39459052 1.37747898 4.20493584 0 0 Z " fill="#653B1C" transform="translate(378,59)"/>
<path d="M0 0 C-1.36911804 3.1489715 -2.8752136 5.0478487 -5.5 7.25 C-6.1084375 7.77078125 -6.716875 8.2915625 -7.34375 8.828125 C-9 10 -9 10 -11 10 C-11.66 11.32 -12.32 12.64 -13 14 C-13.99 14 -14.98 14 -16 14 C-16 13.01 -16 12.02 -16 11 C-14.4609375 9.5703125 -14.4609375 9.5703125 -12.375 8.125 C-9.68576535 6.21774138 -7.11093588 4.29096393 -4.625 2.125 C-2 0 -2 0 0 0 Z " fill="#A2723F" transform="translate(472,253)"/>
<path d="M0 0 C-0.33 0.99 -0.66 1.98 -1 3 C-12.50190114 4.6730038 -12.50190114 4.6730038 -18 4 C-18.66 3.34 -19.32 2.68 -20 2 C-17.79248152 1.66131223 -15.58394089 1.32928311 -13.375 1 C-12.14523437 0.814375 -10.91546875 0.62875 -9.6484375 0.4375 C-6.3833973 0.04597484 -3.28287549 -0.08080924 0 0 Z " fill="#816245" transform="translate(529,147)"/>
<path d="M0 0 C7.74468085 0.74468085 7.74468085 0.74468085 11 4 C11 4.66 11 5.32 11 6 C12.32 6.33 13.64 6.66 15 7 C14.67 8.32 14.34 9.64 14 11 C11.85038384 9.54699102 9.70532871 8.0879574 7.5625 6.625 C6.95083984 6.2125 6.33917969 5.8 5.70898438 5.375 C1.11328125 2.2265625 1.11328125 2.2265625 0 0 Z " fill="#6E4B2D" transform="translate(404,74)"/>
<path d="M0 0 C2 3 2 3 2 6 C2.66 6.33 3.32 6.66 4 7 C3.01 7 2.02 7 1 7 C1 7.66 1 8.32 1 9 C-4.61 9 -10.22 9 -16 9 C-16.33 6.69 -16.66 4.38 -17 2 C-16.01 2.495 -16.01 2.495 -15 3 C-15 4.65 -15 6.3 -15 8 C-14.26394531 7.855625 -13.52789062 7.71125 -12.76953125 7.5625 C-11.79371094 7.376875 -10.81789063 7.19125 -9.8125 7 C-8.84957031 6.814375 -7.88664062 6.62875 -6.89453125 6.4375 C-4.2065794 6.03122388 -1.71228981 5.92066428 1 6 C0.67 4.02 0.34 2.04 0 0 Z " fill="#9A6737" transform="translate(421,123)"/>
<path d="M0 0 C1.17825358 0.90172468 2.34231577 1.82201502 3.5 2.75 C4.1496875 3.26046875 4.799375 3.7709375 5.46875 4.296875 C7 6 7 6 7 10 C5.35 9.67 3.7 9.34 2 9 C1.67 8.01 1.34 7.02 1 6 C-0.31647119 5.30062468 -1.65022151 4.63270867 -3 4 C-3.33 3.34 -3.66 2.68 -4 2 C-2.68 2.33 -1.36 2.66 0 3 C0 2.01 0 1.02 0 0 Z " fill="#916238" transform="translate(550,164)"/>
<path d="M0 0 C0.99 0 1.98 0 3 0 C3.33 0.66 3.66 1.32 4 2 C6.02463255 2.65213292 6.02463255 2.65213292 8 3 C8 3.66 8 4.32 8 5 C8.639375 5.103125 9.27875 5.20625 9.9375 5.3125 C10.618125 5.539375 11.29875 5.76625 12 6 C12.33 6.99 12.66 7.98 13 9 C15.01508358 9.73323796 15.01508358 9.73323796 17 10 C17 10.66 17 11.32 17 12 C12.77471416 11.40385819 9.65457051 8.95318193 6.25 6.5625 C5.64800781 6.15451172 5.04601562 5.74652344 4.42578125 5.32617188 C2.91039188 4.27295908 1.4497966 3.14181957 0 2 C0 1.34 0 0.68 0 0 Z " fill="#986F43" transform="translate(481,161)"/>
<path d="M0 0 C0.99 0 1.98 0 3 0 C3.67679658 1.725227 4.34102 3.45538939 5 5.1875 C5.37125 6.15042969 5.7425 7.11335937 6.125 8.10546875 C6.97636772 10.92182358 7.17072647 13.08164439 7 16 C6.34 16 5.68 16 5 16 C4.1605118 13.89828133 3.32860344 11.79353375 2.5 9.6875 C2.0359375 8.51574219 1.571875 7.34398437 1.09375 6.13671875 C0 3 0 3 0 0 Z " fill="#553A1F" transform="translate(412,164)"/>
<path d="M0 0 C2.67550292 2.67550292 2.83209389 4.94879894 3.625 8.625 C4.01558594 10.40777344 4.01558594 10.40777344 4.4140625 12.2265625 C4.70410156 13.59941406 4.70410156 13.59941406 5 15 C4.01 15.33 3.02 15.66 2 16 C0.24836544 12.22777911 -0.22490027 9.333361 -0.125 5.1875 C-0.10695313 4.21167969 -0.08890625 3.23585937 -0.0703125 2.23046875 C-0.04710937 1.49441406 -0.02390625 0.75835937 0 0 Z " fill="#7D5528" transform="translate(427,199)"/>
<path d="M0 0 C0.33 0.66 0.66 1.32 1 2 C0.23171875 2.08765625 -0.5365625 2.1753125 -1.328125 2.265625 C-4.03870536 2.76563809 -4.03870536 2.76563809 -5.546875 4.609375 C-9.28879446 11.26707586 -9.87132343 17.43147837 -10 25 C-10.33 25 -10.66 25 -11 25 C-11.60244722 8.91242802 -11.60244722 8.91242802 -6.625 2.125 C-4.49485673 0.65028543 -2.54278024 0.34361895 0 0 Z " fill="#4F341B" transform="translate(422,138)"/>
<path d="M0 0 C2.09671373 3.14507059 2.97717438 5.76825249 4.0625 9.375 C4.40410156 10.49648437 4.74570312 11.61796875 5.09765625 12.7734375 C5.86288889 15.50972389 6.4925556 18.20644008 7 21 C2.125 17.375 2.125 17.375 1 14 C1.66 14 2.32 14 3 14 C2.7834375 13.32453125 2.566875 12.6490625 2.34375 11.953125 C2.0653125 11.06109375 1.786875 10.1690625 1.5 9.25 C1.2215625 8.36828125 0.943125 7.4865625 0.65625 6.578125 C0 4 0 4 0 0 Z " fill="#895B2D" transform="translate(416,166)"/>
<path d="M0 0 C0.66 0.33 1.32 0.66 2 1 C2 3.64 2 6.28 2 9 C1.01 9 0.02 9 -1 9 C-1.66 7.35 -2.32 5.7 -3 4 C-3.33 7.63 -3.66 11.26 -4 15 C-4.33 15 -4.66 15 -5 15 C-5.13504138 13.06440687 -5.23201129 11.126128 -5.3125 9.1875 C-5.37050781 8.10855469 -5.42851562 7.02960938 -5.48828125 5.91796875 C-5 3 -5 3 -2.60546875 1.05078125 C-1.74566406 0.70402344 -0.88585937 0.35726562 0 0 Z " fill="#905D2E" transform="translate(447,159)"/>
<path d="M0 0 C0.66 0 1.32 0 2 0 C2.34933594 1.07121094 2.69867188 2.14242187 3.05859375 3.24609375 C3.51807145 4.64328104 3.97771546 6.04041365 4.4375 7.4375 C4.78264648 8.49807617 4.78264648 8.49807617 5.13476562 9.58007812 C6.07421147 13.06306795 6.07421147 13.06306795 8 16 C8.04063832 17.66617115 8.042721 19.33388095 8 21 C4.15656218 18.43770812 3.88161177 15.87692813 2.875 11.625 C2.62169922 10.61566406 2.62169922 10.61566406 2.36328125 9.5859375 C1.89843021 7.72653332 1.44866535 5.86337591 1 4 C0.66765661 2.66641957 0.33494145 1.33293027 0 0 Z " fill="#592F19" transform="translate(388,86)"/>
<path d="M0 0 C-0.66 1.32 -1.32 2.64 -2 4 C-2.99 4 -3.98 4 -5 4 C-5.33 4.99 -5.66 5.98 -6 7 C-6.66 7 -7.32 7 -8 7 C-8.66 8.32 -9.32 9.64 -10 11 C-10.99 10.34 -11.98 9.68 -13 9 C-11.40423801 7.49106184 -9.79810089 5.99308924 -8.1875 4.5 C-7.29417969 3.6646875 -6.40085937 2.829375 -5.48046875 1.96875 C-3 0 -3 0 0 0 Z " fill="#A77D51" transform="translate(539,193)"/>
<path d="M0 0 C-0.125 2.3125 -0.125 2.3125 -1 5 C-3.9375 6.75 -3.9375 6.75 -7 8 C-7.99 8.495 -7.99 8.495 -9 9 C-9 8.01 -9 7.02 -9 6 C-8.34 6 -7.68 6 -7 6 C-6.896875 5.38125 -6.79375 4.7625 -6.6875 4.125 C-5.52284543 0.52515862 -3.5849033 0 0 0 Z " fill="#332011" transform="translate(508,179)"/>
<path d="M0 0 C-1.30886976 2.92700833 -2.66226088 4.87184315 -5.0390625 7.015625 C-5.90917969 7.80839844 -5.90917969 7.80839844 -6.796875 8.6171875 C-7.40015625 9.15601563 -8.0034375 9.69484375 -8.625 10.25 C-9.54152344 11.08144531 -9.54152344 11.08144531 -10.4765625 11.9296875 C-11.97956565 13.2917841 -13.4891468 14.64661601 -15 16 C-15 13 -15 13 -13.83837891 11.46606445 C-13.30647949 10.937146 -12.77458008 10.40822754 -12.2265625 9.86328125 C-11.6490625 9.28642578 -11.0715625 8.70957031 -10.4765625 8.11523438 C-9.86554687 7.52033203 -9.25453125 6.92542969 -8.625 6.3125 C-8.02171875 5.70599609 -7.4184375 5.09949219 -6.796875 4.47460938 C-2.26689925 0 -2.26689925 0 0 0 Z " fill="#8E6137" transform="translate(564,141)"/>
<path d="M0 0 C0.66 0.33 1.32 0.66 2 1 C0.73861805 2.34227818 -0.53444559 3.67358677 -1.8125 5 C-2.52019531 5.7425 -3.22789062 6.485 -3.95703125 7.25 C-6 9 -6 9 -9 9 C-8.49396008 6.83125748 -8.00016187 5.00032373 -7 3 C-3.5625 1.3125 -3.5625 1.3125 0 0 Z " fill="#583A20" transform="translate(558,143)"/>
<path d="M0 0 C-4.17984022 2.42149397 -8.40029352 2.73153779 -13.125 3.33984375 C-16.14000226 4.03214726 -17.7034496 4.97395674 -20 7 C-19.625 4.625 -19.625 4.625 -18 2 C-14.73118805 0.88895479 -11.41086841 0.47046461 -8 0 C-7.12988281 -0.20109375 -6.25976562 -0.4021875 -5.36328125 -0.609375 C-3 -1 -3 -1 0 0 Z " fill="#66452F" transform="translate(436,138)"/>
<path d="M0 0 C2.1328125 0.39453125 2.1328125 0.39453125 4 1 C2.04709472 2.83943372 0.08818082 4.67159131 -1.875 6.5 C-2.70837891 7.28697266 -2.70837891 7.28697266 -3.55859375 8.08984375 C-7.7734375 12 -7.7734375 12 -10 12 C-10 11.34 -10 10.68 -10 10 C-9.34 10 -8.68 10 -8 10 C-8 9.34 -8 8.68 -8 8 C-7.34 8 -6.68 8 -6 8 C-5.7525 7.4225 -5.505 6.845 -5.25 6.25 C-3.7872851 3.61711318 -2.36173231 1.87549331 0 0 Z " fill="#563B1F" transform="translate(608,125)"/>
<path d="M0 0 C0 3 0 3 -1.4609375 4.60546875 C-2.09257812 5.12753906 -2.72421875 5.64960938 -3.375 6.1875 C-4.00148438 6.71730469 -4.62796875 7.24710938 -5.2734375 7.79296875 C-7 9 -7 9 -9 9 C-9 9.66 -9 10.32 -9 11 C-9.66 11 -10.32 11 -11 11 C-10.75 9.125 -10.75 9.125 -10 7 C-7.9375 5.75 -7.9375 5.75 -6 5 C-6 4.34 -6 3.68 -6 3 C-2.53846154 0 -2.53846154 0 0 0 Z " fill="#B67644" transform="translate(484,242)"/>
<path d="M0 0 C0.99 0.33 1.98 0.66 3 1 C1.71937515 2.7074998 0.38232443 4.37373596 -1 6 C-1.66 6 -2.32 6 -3 6 C-3.33 6.99 -3.66 7.98 -4 9 C-4.66 9 -5.32 9 -6 9 C-6.33 9.66 -6.66 10.32 -7 11 C-7 10.34 -7 9.68 -7 9 C-7.66 8.67 -8.32 8.34 -9 8 C-3.25 3 -3.25 3 -1 3 C-0.67 2.01 -0.34 1.02 0 0 Z " fill="#9D7448" transform="translate(522,205)"/>
<path d="M0 0 C3 1 3 1 5 4 C4.625 7.6875 4.625 7.6875 4 11 C3.67 11 3.34 11 3 11 C2.67 9.02 2.34 7.04 2 5 C-0.64 5.33 -3.28 5.66 -6 6 C-6 5.01 -6 4.02 -6 3 C-4.02 2.67 -2.04 2.34 0 2 C0 1.34 0 0.68 0 0 Z " fill="#916330" transform="translate(506,172)"/>
<path d="M0 0 C2 1 2 1 3.9375 3 C5.92411167 5.21548272 5.92411167 5.21548272 9 6 C9.6875 8.0625 9.6875 8.0625 10 10 C4.72289646 7.6560756 0.84919283 5.33034194 -3 1 C-2.01 0.67 -1.02 0.34 0 0 Z " fill="#583322" transform="translate(515,151)"/>
<path d="M0 0 C3.93619738 0.56231391 6.79192446 1.61685817 10 4 C10 4.99 10 5.98 10 7 C9.46375 6.690625 8.9275 6.38125 8.375 6.0625 C5.6015043 4.82172561 2.99957163 4.4090325 0 4 C0 2.68 0 1.36 0 0 Z " fill="#6A4F33" transform="translate(378,55)"/>
<path d="M0 0 C4.15151338 1.44202476 7.29978445 3.5010438 10.8125 6.125 C11.78832031 6.84945312 12.76414062 7.57390625 13.76953125 8.3203125 C14.50558594 8.87460938 15.24164062 9.42890625 16 10 C15.01 10.495 15.01 10.495 14 11 C11.8359375 10.00390625 11.8359375 10.00390625 9.375 8.5625 C8.55773437 8.08941406 7.74046875 7.61632812 6.8984375 7.12890625 C6.27195312 6.75636719 5.64546875 6.38382813 5 6 C5 5.34 5 4.68 5 4 C4.360625 3.896875 3.72125 3.79375 3.0625 3.6875 C2.381875 3.460625 1.70125 3.23375 1 3 C0.67 2.01 0.34 1.02 0 0 Z " fill="#442E21" transform="translate(526,160)"/>
<path d="M0 0 C1.99954746 -0.04254356 4.00041636 -0.04080783 6 0 C6.33 0.33 6.66 0.66 7 1 C8.85772162 0.91015699 10.71247985 0.75388139 12.5625 0.5625 C13.57441406 0.46066406 14.58632813 0.35882813 15.62890625 0.25390625 C16.41136719 0.17011719 17.19382812 0.08632812 18 0 C18 0.66 18 1.32 18 2 C13.05 2.66 8.1 3.32 3 4 C3 3.01 3 2.02 3 1 C2.01 0.67 1.02 0.34 0 0 Z " fill="#695439" transform="translate(526,146)"/>
<path d="M0 0 C2.71743027 2.71743027 3.50932886 5.86942046 4.6875 9.4375 C4.92533203 10.11876953 5.16316406 10.80003906 5.40820312 11.50195312 C7.12211809 16.63364573 7.12211809 16.63364573 6 20 C3.60347633 16.36158031 2.31497165 13.10765806 1.3125 8.875 C1.06113281 7.84117188 0.80976563 6.80734375 0.55078125 5.7421875 C0 3 0 3 0 0 Z " fill="#A66E3A" transform="translate(396,101)"/>
<path d="M0 0 C0 1.65 0 3.3 0 5 C-0.33 4.01 -0.66 3.02 -1 2 C-2.98 2.66 -4.96 3.32 -7 4 C-7.33 2.68 -7.66 1.36 -8 0 C-4.71023192 -1.09658936 -3.28696233 -0.79953138 0 0 Z " fill="#61391E" transform="translate(509,177)"/>
<path d="M0 0 C0.99 0.99 1.98 1.98 3 3 C2.34 3 1.68 3 1 3 C0.87625 4.19625 0.7525 5.3925 0.625 6.625 C0.17674946 10.27596813 -0.70446837 13.54524899 -2 17 C-2.33 17 -2.66 17 -3 17 C-2.855625 16.030625 -2.71125 15.06125 -2.5625 14.0625 C-2.01988094 10.32530676 -1.63804129 6.5793636 -1.28125 2.8203125 C-1 1 -1 1 0 0 Z " fill="#BA7F46" transform="translate(484,133)"/>
<path d="M0 0 C0.33 0.66 0.66 1.32 1 2 C2.32 2 3.64 2 5 2 C4.67 3.98 4.34 5.96 4 8 C3.01 8 2.02 8 1 8 C0.40267181 5.23735711 0 2.83967231 0 0 Z " fill="#7F5A34" transform="translate(446,257)"/>
<path d="M0 0 C-0.0625 1.75 -0.0625 1.75 -1 4 C-3.24164322 5.59501537 -5.53566643 6.74543018 -8 8 C-8 7.01 -8 6.02 -8 5 C-2.65116279 0 -2.65116279 0 0 0 Z " fill="#A97853" transform="translate(515,214)"/>
<path d="M0 0 C-2.31445295 2.74332921 -3.88360519 3.45890844 -7.4375 3.8125 C-8.19933594 3.90144531 -8.96117187 3.99039063 -9.74609375 4.08203125 C-12 4 -12 4 -16 2 C-12.7 2 -9.4 2 -6 2 C-6 1.34 -6 0.68 -6 0 C-3 -1 -3 -1 0 0 Z " fill="#705232" transform="translate(428,130)"/>
<path d="M0 0 C0 0.66 0 1.32 0 2 C-0.66 2.66 -1.32 3.32 -2 4 C-2 4.33 -2 4.66 -2 5 C-4.64 5 -7.28 5 -10 5 C-9.01 4.67 -8.02 4.34 -7 4 C-7 3.01 -7 2.02 -7 1 C-2.25 0 -2.25 0 0 0 Z " fill="#71572A" transform="translate(551,122)"/>
<path d="M0 0 C3.63 0 7.26 0 11 0 C11 1.32 11 2.64 11 4 C10.01 4 9.02 4 8 4 C8 3.34 8 2.68 8 2 C5.36 2 2.72 2 0 2 C0 1.34 0 0.68 0 0 Z " fill="#4E3925" transform="translate(608,116)"/>
<path d="M0 0 C0.33 0 0.66 0 1 0 C1 3.3 1 6.6 1 10 C1.66 10.33 2.32 10.66 3 11 C2.34 11.66 1.68 12.32 1 13 C0.01 12.67 -0.98 12.34 -2 12 C-1.34 8.04 -0.68 4.08 0 0 Z " fill="#714B27" transform="translate(542,175)"/>
<path d="M0 0 C3.5875213 1.33250791 6.8364623 2.830717 10 5 C10 5.66 10 6.32 10 7 C5.61308455 6.49381745 3.15608721 3.86917019 0 1 C0 0.67 0 0.34 0 0 Z " fill="#855930" transform="translate(514,155)"/>
<path d="M0 0 C2.66735273 2.48952921 4.55746343 4.63408134 6 8 C4.68 8.33 3.36 8.66 2 9 C1.34 6.03 0.68 3.06 0 0 Z " fill="#714B2A" transform="translate(416,104)"/>
<path d="M0 0 C2.0625 0.6875 2.0625 0.6875 4 2 C4.75 4.125 4.75 4.125 5 6 C2.11562221 4.70700306 0.12780579 3.34058637 -2 1 C-1.34 0.67 -0.68 0.34 0 0 Z " fill="#C9793D" transform="translate(436,120)"/>
<path d="M0 0 C0.66 0 1.32 0 2 0 C4.28571429 8.42857143 4.28571429 8.42857143 4 13 C1.91620491 9.15299368 0.50313376 5.09945571 -1 1 C-0.67 0.67 -0.34 0.34 0 0 Z " fill="#4A2D14" transform="translate(384,73)"/>
<path d="M0 0 C0 0.66 0 1.32 0 2 C-6.4 5.07692308 -6.4 5.07692308 -9.4375 4.6875 C-9.953125 4.460625 -10.46875 4.23375 -11 4 C-9.35 3.67 -7.7 3.34 -6 3 C-6 2.34 -6 1.68 -6 1 C-3.92446352 0.4465236 -2.15634036 0 0 0 Z " fill="#583E28" transform="translate(557,121)"/>
<path d="M0 0 C0.99 0.33 1.98 0.66 3 1 C4.1875 4.5625 4.1875 4.5625 5 8 C3.0625 7.375 3.0625 7.375 1 6 C0.25 2.875 0.25 2.875 0 0 Z " fill="#483322" transform="translate(423,122)"/>
<path d="M0 0 C2.25 0.25 2.25 0.25 4 1 C2.25 3.0625 2.25 3.0625 0 5 C-2.25 4.75 -2.25 4.75 -4 4 C-2.25 1.9375 -2.25 1.9375 0 0 Z " fill="#664824" transform="translate(613,120)"/>
<path d="M0 0 C0.99 0.33 1.98 0.66 3 1 C1.6875 3.5 1.6875 3.5 0 6 C-0.99 6 -1.98 6 -3 6 C-1.125 1.125 -1.125 1.125 0 0 Z " fill="#86643C" transform="translate(541,187)"/>
<path d="M0 0 C2 2 2 2 2 5 C1.34 5 0.68 5 0 5 C0 7.31 0 9.62 0 12 C-0.33 12 -0.66 12 -1 12 C-1.02687279 10.18757948 -1.04633715 8.37504767 -1.0625 6.5625 C-1.07410156 5.55316406 -1.08570313 4.54382813 -1.09765625 3.50390625 C-1 1 -1 1 0 0 Z " fill="#744921" transform="translate(444,162)"/>
<path d="M0 0 C0 0.99 0 1.98 0 3 C-6.625 3.25 -6.625 3.25 -10 1 C-6.52674819 -0.1577506 -3.63932552 -0.06866652 0 0 Z " fill="#8D6137" transform="translate(576,123)"/>
<path d="M0 0 C0 0.99 0 1.98 0 3 C-1.8125 3.6875 -1.8125 3.6875 -4 4 C-5.75 2.5625 -5.75 2.5625 -7 1 C-4.53721199 -0.231394 -2.7204945 -0.07159196 0 0 Z " fill="#604027" transform="translate(544,123)"/>
<path d="M0 0 C2.64 0 5.28 0 8 0 C5.23776722 2.76223278 2.79293383 2.57856291 -1 3 C-0.67 2.01 -0.34 1.02 0 0 Z " fill="#846339" transform="translate(452,162)"/>
<path d="M0 0 C-1 1 -1 1 -3.06640625 1.09765625 C-3.89011719 1.08605469 -4.71382813 1.07445312 -5.5625 1.0625 C-6.38878906 1.05347656 -7.21507812 1.04445312 -8.06640625 1.03515625 C-8.70449219 1.02355469 -9.34257812 1.01195312 -10 1 C-6.54366026 -2.45633974 -4.11562231 -2.49877069 0 0 Z " fill="#956446" transform="translate(476,161)"/>
<path d="M0 0 C-1 3 -1 3 -2.9375 4.0625 C-3.618125 4.371875 -4.29875 4.68125 -5 5 C-5.66 5.66 -6.32 6.32 -7 7 C-6.22006468 2.47637516 -4.81844319 0 0 0 Z " fill="#4D341F" transform="translate(598,137)"/>
<path d="M0 0 C2.3431213 0.25561323 4.67843403 0.59270772 7 1 C7.33 1.66 7.66 2.32 8 3 C7.01 4.485 7.01 4.485 6 6 C3.97945196 4.35830472 1.97956942 2.69088222 0 1 C0 0.67 0 0.34 0 0 Z " fill="#75573E" transform="translate(404,74)"/>
<path d="M0 0 C2.4375 0.75 2.4375 0.75 5 2 C5.8125 4.125 5.8125 4.125 6 6 C3.5625 5.25 3.5625 5.25 1 4 C0.1875 1.875 0.1875 1.875 0 0 Z " fill="#523D28" transform="translate(388,60)"/>
<path d="M0 0 C0 3 0 3 -1 6 C-2.65 6 -4.3 6 -6 6 C-5.34 5.67 -4.68 5.34 -4 5 C-3.67 4.01 -3.34 3.02 -3 2 C-2.01 1.34 -1.02 0.68 0 0 Z " fill="#3E2619" transform="translate(545,153)"/>
<path d="M0 0 C1.32 0.33 2.64 0.66 4 1 C-0.455 3.97 -0.455 3.97 -5 7 C-2.36363636 1.72727273 -2.36363636 1.72727273 0 0 Z " fill="#5E3B24" transform="translate(584,147)"/>
<path d="M0 0 C1.485 0.99 1.485 0.99 3 2 C3 2.66 3 3.32 3 4 C2.01 3.67 1.02 3.34 0 3 C0 2.01 0 1.02 0 0 Z " fill="#000000" transform="translate(451,82)"/>
</svg>
