<svg baseProfile="full" height="2048" version="1.1" width="2048" xmlns="http://www.w3.org/2000/svg" xmlns:ev="http://www.w3.org/2001/xml-events" xmlns:xlink="http://www.w3.org/1999/xlink"><defs /><polygon fill="orange" points="683,451 682,452 682,454 683,454 684,453 684,452" /><polygon fill="orange" points="676,450 676,451" /><polygon fill="orange" points="665,444 664,445 663,445 663,446 664,447 667,447 668,448 668,449 669,449 670,450 672,450 673,449 673,447 672,446 669,446 668,445 666,445" /><polygon fill="orange" points="2004,373 2003,374 2002,374 2001,375 1998,375 1998,376 1997,377 1991,377 1991,378 1990,379 1987,379 1985,381 1982,381 1981,382 1980,382 1979,383 1978,383 1977,384 1975,384 1975,385 1974,386 1969,386 1967,388 1964,388 1964,389 1963,390 1961,390 1960,391 1959,391 1958,392 1956,392 1953,395 1949,395 1947,397 1942,397 1942,398 1941,399 1935,399 1934,400 1933,400 1932,401 1928,401 1927,402 1926,402 1926,403 1925,404 1922,404 1920,406 1917,406 1917,407 1916,408 1912,408 1910,410 1907,410 1906,411 1904,411 1903,412 1901,412 1900,413 1898,413 1896,415 1892,415 1892,416 1891,417 1888,417 1888,418 1887,419 1885,419 1884,420 1880,420 1879,421 1874,421 1873,422 1871,422 1871,423 1870,424 1866,424 1864,426 1861,426 1861,427 1860,428 1856,428 1854,430 1851,430 1850,431 1848,431 1846,433 1841,433 1841,434 1840,435 1837,435 1835,437 1832,437 1831,438 1830,438 1830,439 1829,440 1825,440 1824,441 1821,441 1820,442 1817,442 1815,444 1812,444 1812,445 1811,446 1806,446 1804,448 1802,448 1801,449 1799,449 1797,451 1794,451 1794,452 1793,453 1788,453 1786,455 1781,455 1781,456 1780,457 1774,457 1773,458 1772,458 1772,459 1771,460 1768,460 1766,462 1763,462 1763,463 1762,464 1759,464 1757,466 1752,466 1752,468 1751,469 1743,469 1741,471 1737,471 1735,473 1732,473 1730,475 1725,475 1723,477 1720,477 1719,478 1718,478 1718,479 1717,480 1713,480 1713,481 1712,482 1707,482 1707,483 1706,484 1700,484 1698,486 1694,486 1691,489 1689,489 1689,490 1688,491 1683,491 1683,492 1682,493 1679,493 1677,495 1674,495 1673,496 1673,497 1672,498 1667,498 1667,499 1666,500 1660,500 1660,501 1659,502 1655,502 1653,504 1650,504 1648,506 1645,506 1644,507 1642,507 1642,508 1641,509 1638,509 1636,511 1631,511 1629,513 1623,513 1621,515 1617,515 1614,518 1609,518 1609,519 1608,520 1603,520 1601,522 1598,522 1596,524 1589,524 1589,525 1587,527 1582,527 1582,528 1581,529 1577,529 1575,531 1571,531 1569,533 1566,533 1564,535 1561,535 1560,536 1558,536 1556,538 1550,538 1549,539 1548,539 1547,540 1544,540 1544,541 1543,542 1541,542 1540,543 1539,543 1538,544 1535,544 1534,545 1532,545 1532,546 1531,547 1526,547 1526,548 1525,549 1520,549 1518,551 1514,551 1513,552 1512,552 1511,553 1509,553 1508,554 1506,554 1506,555 1505,556 1501,556 1501,557 1500,558 1497,558 1497,559 1496,560 1491,560 1489,562 1487,562 1486,563 1484,563 1483,564 1482,564 1481,565 1479,565 1479,566 1478,567 1475,567 1473,569 1468,569 1468,570 1467,571 1462,571 1461,572 1460,572 1459,573 1456,573 1455,574 1454,574 1454,575 1453,576 1448,576 1448,577 1447,578 1441,578 1441,579 1440,580 1436,580 1435,581 1434,581 1432,583 1429,583 1427,585 1423,585 1423,586 1422,587 1419,587 1417,589 1413,589 1412,590 1412,591 1411,592 1408,592 1407,593 1406,593 1405,594 1403,594 1403,595 1402,596 1395,596 1393,598 1386,598 1384,600 1381,600 1380,601 1379,601 1377,603 1373,603 1371,605 1365,605 1364,606 1363,606 1362,607 1359,607 1357,609 1354,609 1354,611 1353,612 1347,612 1345,614 1341,614 1339,616 1337,616 1335,618 1332,618 1331,619 1331,620 1330,621 1325,621 1325,622 1324,623 1320,623 1319,624 1318,624 1317,625 1314,625 1314,626 1313,627 1309,627 1309,628 1308,629 1305,629 1304,630 1302,630 1302,631 1301,632 1296,632 1296,633 1295,634 1289,634 1287,636 1283,636 1281,638 1279,638 1276,641 1271,641 1271,642 1270,643 1264,643 1264,644 1263,645 1259,645 1257,647 1254,647 1252,649 1250,649 1249,650 1246,650 1244,652 1238,652 1236,654 1233,654 1233,655 1232,656 1229,656 1227,658 1223,658 1222,659 1222,660 1221,661 1215,661 1214,662 1213,662 1212,663 1207,663 1205,665 1202,665 1201,666 1200,666 1199,667 1196,667 1195,668 1195,669 1194,670 1189,670 1187,672 1184,672 1184,673 1183,674 1180,674 1178,676 1175,676 1175,677 1174,678 1171,678 1170,679 1168,679 1168,680 1167,681 1157,681 1157,682 1156,683 1153,683 1151,685 1148,685 1147,686 1146,686 1145,687 1140,687 1139,688 1137,688 1137,689 1136,690 1133,690 1133,691 1132,692 1128,692 1128,693 1127,694 1120,694 1118,696 1112,696 1111,697 1110,697 1110,698 1109,699 1106,699 1106,700 1105,701 1101,701 1101,702 1100,703 1095,703 1093,705 1091,705 1089,707 1088,707 1087,708 1084,708 1084,709 1083,710 1079,710 1079,711 1078,712 1074,712 1074,713 1073,714 1071,714 1070,715 1066,715 1065,716 1063,716 1062,717 1061,717 1061,718 1060,719 1054,719 1054,720 1053,721 1047,721 1045,723 1042,723 1040,725 1037,725 1036,726 1034,726 1034,727 1033,728 1023,728 1021,726 1020,726 1019,725 1016,725 1015,724 1015,723 1012,723 1011,722 1011,721 1007,721 1005,719 1001,719 999,717 998,717 997,716 995,716 994,715 988,715 986,713 986,712 980,712 979,711 979,710 974,710 973,709 973,708 972,707 969,707 967,705 964,705 962,703 958,703 957,702 957,701 954,701 952,699 947,699 945,697 944,697 943,696 940,696 938,694 935,694 934,693 934,692 925,692 923,690 920,690 919,689 919,688 918,688 917,687 915,687 914,686 913,686 912,685 906,685 905,684 905,683 900,683 899,682 899,681 895,681 894,680 894,679 892,679 891,678 889,678 888,677 887,677 886,676 882,676 881,675 881,674 875,674 874,673 874,672 869,672 867,670 860,670 859,669 859,668 858,667 853,667 851,665 848,665 847,664 847,663 844,663 843,662 842,662 841,661 835,661 833,659 832,659 831,658 828,658 827,657 826,657 825,656 822,656 821,655 821,654 819,654 818,653 817,653 816,652 813,652 811,650 808,650 807,649 806,649 805,648 805,647 801,647 799,645 792,645 791,644 791,643 786,643 785,642 785,641 782,641 780,639 779,639 778,638 775,638 774,637 773,637 772,636 766,636 765,635 765,634 761,634 759,632 755,632 754,631 754,630 753,629 749,629 747,627 741,627 739,625 735,625 733,623 730,623 729,622 729,621 723,621 722,620 722,618 718,618 716,616 712,616 711,615 711,614 705,614 703,612 698,612 697,611 697,610 696,610 695,609 692,609 690,607 686,607 684,605 679,605 678,604 678,603 674,603 673,602 672,602 670,600 667,600 666,599 666,598 661,598 659,596 654,596 653,595 653,594 651,594 649,592 645,592 644,591 644,590 643,589 637,589 635,587 630,587 629,586 629,585 626,585 624,583 621,583 620,582 616,582 615,581 615,580 610,580 608,578 605,578 604,577 604,576 598,576 597,575 597,574 596,574 595,573 591,573 589,571 586,571 584,569 581,569 579,567 574,567 572,565 571,565 570,564 569,564 568,563 565,563 564,562 562,562 560,560 556,560 554,558 549,558 548,557 548,556 546,556 543,553 538,553 536,551 531,551 529,549 525,549 524,548 524,547 520,547 519,546 519,545 518,544 515,544 514,543 512,543 511,542 507,542 506,541 506,540 502,540 501,539 501,538 497,538 496,537 496,536 493,536 492,535 489,535 487,533 482,533 481,532 481,531 478,531 476,529 473,529 472,528 472,527 468,527 467,526 467,525 466,525 465,524 460,524 458,522 455,522 454,521 454,520 449,520 447,518 444,518 441,515 437,515 436,514 435,514 434,513 428,513 427,512 427,511 422,511 421,510 421,509 417,509 416,508 416,507 414,507 413,506 410,506 409,505 409,504 406,504 404,502 400,502 398,500 395,500 393,498 388,498 387,497 387,496 386,495 381,495 380,494 380,493 375,493 374,492 374,491 370,491 369,490 369,489 361,489 360,488 360,487 359,486 355,486 353,484 350,484 349,483 349,482 344,482 342,480 336,480 334,478 333,478 332,477 330,477 328,475 325,475 324,474 324,473 319,473 318,472 318,471 312,471 311,470 311,469 307,469 306,468 306,467 305,467 304,466 301,466 299,464 296,464 294,462 289,462 288,461 288,460 281,460 280,459 280,458 279,457 274,457 273,456 273,455 270,455 269,454 269,453 265,453 264,452 264,451 261,451 260,450 259,450 258,449 257,449 256,448 252,448 251,447 251,446 247,446 246,445 246,444 241,444 240,443 240,442 237,442 236,441 234,441 233,440 227,440 226,439 226,437 222,437 220,435 216,435 214,433 210,433 207,430 205,430 203,428 198,428 196,426 191,426 190,425 190,424 185,424 184,423 184,422 182,422 181,421 180,421 179,420 176,420 175,419 173,419 171,417 167,417 165,415 160,415 159,414 159,413 158,413 157,412 156,412 155,411 154,411 153,410 149,410 147,408 142,408 141,407 141,406 136,406 135,405 135,404 131,404 130,403 130,402 129,402 128,401 124,401 122,399 118,399 117,398 117,397 113,397 112,396 111,396 110,395 107,395 105,393 104,393 103,392 100,392 98,390 95,390 94,389 94,388 90,388 89,387 89,386 86,386 84,384 82,384 81,383 79,383 78,382 77,382 76,381 73,381 71,379 68,379 66,377 57,377 56,376 56,375 53,375 53,381 54,381 55,382 55,383 57,385 57,386 60,389 61,389 62,390 62,393 63,393 64,394 64,396 65,396 66,397 66,398 67,399 67,400 68,401 68,402 69,403 70,403 71,404 71,407 72,407 73,408 73,409 74,409 75,410 75,412 77,414 77,416 79,416 80,417 80,418 81,418 82,419 82,422 84,424 84,425 85,425 86,426 86,429 89,432 89,434 90,434 91,435 91,436 93,438 93,440 94,441 95,441 96,442 96,443 97,444 97,445 98,446 99,446 100,447 100,450 101,450 102,451 102,453 104,455 104,456 107,459 107,460 109,462 109,463 110,463 111,464 111,467 112,467 113,468 113,470 114,470 116,472 116,474 118,476 118,477 119,477 120,478 120,479 122,481 122,483 123,483 124,484 124,485 125,486 125,487 126,488 126,489 127,490 127,492 128,492 129,493 129,495 131,497 131,499 132,499 133,500 133,502 136,505 136,506 138,508 138,510 139,510 140,511 140,512 141,513 141,514 142,515 142,516 143,517 144,517 145,518 145,519 147,521 147,522 148,522 149,523 149,525 151,527 151,528 152,528 153,529 153,531 156,534 156,535 157,535 158,536 158,539 159,539 160,540 160,541 161,541 162,542 162,544 163,545 163,546 164,546 165,547 165,548 166,548 167,549 167,551 169,553 169,554 171,556 171,557 173,557 174,558 174,560 176,562 176,564 177,564 178,565 178,567 180,569 180,570 182,572 182,573 183,574 183,575 184,575 185,576 185,579 186,579 187,580 187,583 189,585 189,586 190,586 191,587 191,589 192,590 193,590 194,591 194,593 195,593 196,594 196,595 197,595 198,596 198,598 200,600 200,601 201,602 202,602 203,603 203,604 204,604 205,605 205,608 206,608 207,609 207,610 209,612 209,613 210,614 210,615 212,617 212,618 213,618 214,619 214,622 215,622 216,623 216,624 217,624 218,625 218,627 219,628 219,629 220,630 220,631 223,634 223,635 224,635 225,636 225,639 227,641 227,642 228,643 228,644 229,645 229,646 230,647 231,647 232,648 232,649 233,649 234,650 234,653 235,653 236,654 236,655 237,655 238,656 238,658 239,659 239,660 241,662 242,662 243,663 243,666 245,668 245,671 246,671 249,674 249,675 250,676 250,677 252,679 252,680 253,680 254,681 254,684 255,684 256,685 256,686 259,689 259,690 261,692 261,693 262,693 263,694 263,697 264,697 265,698 265,700 266,700 268,702 268,704 269,705 269,706 270,707 270,708 271,708 272,709 272,711 273,711 274,712 274,715 279,720 280,720 281,721 281,724 283,726 283,727 284,727 285,728 285,729 288,732 288,734 290,736 290,737 292,739 292,740 295,743 296,743 297,744 297,746 299,748 299,749 300,749 301,750 301,751 303,753 303,755 305,757 305,758 308,761 308,762 309,762 310,763 310,765 311,765 312,766 312,769 313,769 314,770 314,772 315,773 315,774 316,774 317,775 317,776 318,776 319,777 319,779 321,781 321,782 323,784 323,785 324,786 324,787 325,787 326,788 326,790 327,790 328,791 328,794 329,794 330,795 330,796 332,798 332,799 334,801 334,802 335,803 336,803 337,804 337,805 338,805 339,806 339,809 340,809 341,810 341,811 343,813 343,815 344,816 345,816 346,817 346,821 347,821 348,822 348,824 350,826 350,827 355,832 355,834 356,834 357,835 357,836 358,836 359,837 359,841 360,841 361,842 361,844 363,846 363,847 364,848 365,848 366,849 366,850 367,850 368,851 368,853 372,857 372,858 373,859 374,859 375,860 375,863 376,863 377,864 377,866 379,868 379,870 380,870 381,871 381,872 382,873 382,874 384,876 384,877 385,877 386,878 386,880 388,882 388,883 391,886 391,887 393,889 393,890 394,890 395,891 395,892 397,894 397,896 399,898 399,899 400,899 401,900 401,902 404,905 404,906 405,906 406,907 406,910 407,910 408,911 408,912 410,914 410,915 411,916 411,917 412,918 412,919 414,921 420,921 420,920 421,919 427,919 429,917 433,917 433,916 434,915 436,915 437,914 438,914 439,913 440,913 441,912 442,912 444,910 447,910 449,908 452,908 452,907 453,906 456,906 458,904 460,904 461,903 461,902 462,901 467,901 467,900 468,899 470,899 470,898 471,897 475,897 477,895 480,895 482,893 484,893 485,892 486,892 486,891 487,890 490,890 490,889 491,888 494,888 494,887 495,886 497,886 498,885 501,885 502,884 505,884 508,881 510,881 510,880 511,879 515,879 515,878 516,877 519,877 519,876 520,875 522,875 523,874 524,874 524,873 525,872 530,872 530,871 531,870 535,870 535,869 536,868 541,868 541,866 542,865 546,865 548,863 550,863 550,862 551,861 554,861 556,859 557,859 557,858 558,857 559,857 559,856 560,855 560,854 561,853 561,848 559,846 559,845 557,843 557,842 556,842 555,841 555,838 554,838 552,836 552,835 551,835 550,834 550,833 549,833 548,832 548,828 546,826 546,825 543,822 542,822 541,821 541,818 539,816 539,815 538,815 537,814 537,810 535,808 535,807 534,806 533,806 532,805 532,804 531,804 530,803 530,801 528,799 528,798 526,796 526,793 523,790 522,790 521,789 521,787 519,785 519,782 517,780 517,779 515,777 515,775 513,775 512,774 512,771 511,771 510,770 510,767 508,765 508,764 507,764 506,763 506,762 504,760 504,759 503,758 503,757 502,757 501,756 501,755 500,755 499,754 499,750 498,750 497,749 497,747 495,745 495,744 494,744 492,742 492,739 491,739 490,738 490,735 489,735 488,734 488,732 486,730 486,729 485,728 484,728 483,727 483,726 481,724 481,719 478,719 477,718 477,715 476,715 475,714 475,713 474,712 473,712 472,711 472,710 471,710 470,709 470,705 469,705 468,704 468,703 467,703 466,702 466,699 467,698 469,698 471,700 474,700 475,701 475,702 476,703 479,703 480,704 480,705 483,705 484,706 484,707 488,707 489,708 489,709 490,709 491,710 491,711 493,711 494,712 495,712 496,713 501,713 502,714 502,715 503,716 508,716 510,718 514,718 515,719 515,720 516,720 517,721 519,721 520,722 521,722 522,723 524,723 525,724 525,725 529,725 531,727 535,727 536,728 536,729 539,729 541,731 542,731 543,732 544,732 545,733 546,733 547,734 549,734 551,736 555,736 556,737 556,738 557,738 559,740 560,740 561,741 566,741 567,742 568,742 569,743 572,743 574,745 575,745 576,746 577,746 578,747 582,747 583,748 583,749 584,749 585,750 586,750 587,751 588,751 589,752 593,752 594,753 594,754 597,754 599,756 605,756 607,758 611,758 612,759 612,761 615,761 616,762 617,762 618,763 622,763 623,764 623,765 627,765 629,767 633,767 634,768 634,769 635,769 636,770 637,770 639,772 642,772 644,774 647,774 649,776 651,776 652,777 652,778 655,778 656,779 659,779 661,781 662,781 663,782 664,782 665,783 666,783 668,785 673,785 674,786 674,787 678,787 679,788 679,789 680,790 685,790 686,791 686,792 691,792 692,793 692,794 695,794 697,796 700,796 702,798 703,798 704,799 707,799 708,800 708,801 711,801 713,803 718,803 719,804 719,805 722,805 723,806 723,807 727,807 728,808 728,810 731,810 733,812 736,812 737,813 737,814 742,814 744,816 745,816 748,819 754,819 755,820 755,821 756,821 758,823 760,823 761,824 761,825 765,825 766,826 766,827 767,827 768,828 770,828 772,830 776,830 777,831 777,832 778,832 779,833 779,834 782,834 783,835 787,835 788,836 792,836 793,837 793,839 796,839 797,840 797,841 800,841 801,842 801,843 805,843 806,844 806,845 805,846 802,846 800,848 797,848 797,850 796,851 793,851 793,852 792,853 786,853 786,854 785,855 782,855 782,856 781,857 778,857 777,858 775,858 774,859 773,859 772,860 770,860 770,861 769,862 767,862 765,864 756,864 754,866 752,866 751,867 750,867 749,868 746,868 745,869 744,869 744,870 743,871 735,871 735,872 734,873 729,873 727,875 726,875 724,877 722,877 721,878 719,878 718,879 717,879 716,880 711,880 709,882 706,882 704,884 698,884 697,885 697,886 696,887 688,887 687,888 686,888 685,889 683,889 683,890 682,891 677,891 675,893 673,893 671,895 666,895 665,896 664,896 663,897 661,897 660,898 657,898 657,899 656,900 651,900 649,902 646,902 644,904 638,904 635,907 632,907 630,909 626,909 624,911 619,911 617,913 611,913 610,914 610,915 609,916 604,916 602,918 598,918 596,920 592,920 592,921 591,922 586,922 584,924 581,924 580,925 580,926 579,927 574,927 572,929 568,929 566,931 563,931 563,932 562,933 557,933 556,934 556,935 555,936 550,936 548,938 545,938 545,939 544,940 541,940 539,942 537,942 536,943 536,944 535,945 533,945 533,946 532,947 529,947 529,948 528,949 525,949 520,954 519,954 519,955 518,956 516,956 516,957 514,959 514,960 513,961 512,961 504,969 504,973 503,974 502,974 502,977 501,978 500,978 500,982 499,983 498,983 498,989 497,990 496,990 495,991 495,1011 494,1012 494,1028 495,1029 495,1042 496,1043 496,1044 497,1044 498,1045 498,1061 500,1063 500,1070 502,1072 502,1077 504,1079 504,1082 505,1083 505,1084 506,1085 506,1088 507,1089 507,1090 509,1092 509,1095 511,1097 511,1098 512,1098 513,1099 513,1102 514,1102 515,1103 515,1106 516,1107 517,1107 518,1108 518,1111 519,1111 520,1112 520,1116 521,1116 522,1117 522,1119 524,1121 524,1122 525,1123 525,1124 527,1126 527,1129 528,1129 529,1130 529,1132 531,1134 531,1136 532,1136 533,1137 533,1139 535,1141 535,1142 536,1143 537,1143 538,1144 538,1147 539,1147 540,1148 540,1149 541,1149 542,1150 542,1152 543,1153 543,1154 544,1155 544,1156 545,1157 545,1158 546,1158 547,1159 547,1160 548,1160 549,1161 549,1165 550,1165 551,1166 551,1167 552,1167 553,1168 553,1171 554,1172 555,1172 556,1173 556,1176 557,1176 558,1177 558,1180 559,1180 560,1181 560,1184 563,1187 563,1188 564,1189 564,1190 565,1191 565,1192 566,1192 567,1193 567,1194 568,1195 568,1196 569,1197 569,1198 570,1198 571,1199 571,1200 572,1201 572,1202 573,1203 573,1204 574,1205 575,1205 576,1206 576,1209 577,1209 578,1210 578,1212 580,1214 580,1216 581,1216 585,1220 585,1221 586,1221 587,1222 587,1223 588,1223 589,1224 589,1226 590,1227 591,1227 592,1228 592,1230 594,1232 594,1233 595,1233 596,1234 596,1236 598,1238 598,1240 600,1242 600,1243 601,1244 601,1245 603,1247 603,1249 604,1249 605,1250 605,1252 606,1252 607,1253 607,1254 608,1254 609,1255 609,1257 612,1260 612,1261 613,1261 614,1262 614,1265 618,1269 618,1271 619,1272 620,1272 621,1273 621,1274 622,1274 623,1275 623,1277 624,1277 625,1278 625,1280 627,1282 627,1283 628,1283 629,1284 629,1286 630,1287 630,1288 631,1288 632,1289 632,1290 634,1292 634,1294 636,1296 636,1298 638,1300 638,1301 640,1301 641,1302 641,1305 643,1307 643,1308 644,1308 645,1309 645,1312 646,1312 647,1313 647,1316 648,1316 650,1318 650,1319 651,1319 652,1320 652,1323 654,1325 654,1326 655,1326 656,1327 656,1329 658,1331 658,1332 660,1332 661,1333 661,1335 662,1335 663,1336 663,1339 664,1339 665,1340 665,1341 666,1342 666,1343 667,1344 667,1346 668,1346 670,1348 670,1350 672,1352 672,1353 673,1353 674,1354 674,1356 676,1358 676,1359 679,1362 679,1364 680,1364 681,1365 681,1367 683,1369 683,1370 687,1374 687,1375 688,1376 688,1377 689,1377 690,1378 690,1380 691,1380 692,1381 692,1384 693,1384 694,1385 694,1387 696,1389 696,1392 697,1393 698,1393 699,1394 699,1396 701,1398 701,1399 707,1405 707,1406 708,1407 708,1408 710,1410 710,1411 712,1413 712,1415 714,1415 715,1416 715,1418 719,1422 719,1424 720,1424 721,1425 721,1426 722,1426 723,1427 723,1428 725,1430 725,1431 726,1432 726,1433 727,1433 728,1434 728,1437 730,1439 730,1441 732,1443 732,1444 734,1444 735,1445 735,1449 736,1449 737,1450 737,1451 738,1451 739,1452 739,1455 740,1455 741,1456 741,1459 742,1460 743,1460 744,1461 744,1462 748,1466 748,1468 750,1470 750,1471 751,1471 752,1472 752,1473 753,1474 754,1474 755,1475 755,1477 757,1479 757,1480 758,1480 759,1481 759,1482 761,1484 761,1486 762,1487 763,1487 764,1488 764,1489 765,1489 766,1490 766,1493 768,1495 768,1497 770,1499 770,1500 772,1502 772,1503 775,1506 775,1509 776,1509 777,1510 777,1511 779,1513 779,1515 781,1517 781,1518 782,1519 782,1520 783,1520 784,1521 784,1523 785,1523 786,1524 786,1527 787,1527 788,1528 788,1529 789,1529 790,1530 790,1532 791,1533 792,1533 793,1534 793,1536 794,1536 795,1537 795,1538 797,1540 797,1542 799,1544 799,1545 800,1545 801,1546 801,1548 802,1549 803,1549 804,1550 804,1553 806,1555 806,1557 810,1561 810,1562 811,1563 812,1563 813,1564 813,1566 815,1568 815,1569 817,1571 817,1572 818,1573 818,1574 819,1575 819,1576 820,1576 822,1578 822,1580 824,1582 824,1583 825,1583 826,1584 826,1587 827,1587 828,1588 828,1589 831,1592 832,1592 833,1593 833,1594 834,1595 834,1596 835,1597 835,1598 836,1598 837,1599 837,1600 839,1602 839,1603 840,1604 840,1605 841,1605 842,1606 842,1607 843,1607 844,1608 844,1611 846,1613 846,1614 847,1614 848,1615 848,1618 849,1619 850,1619 851,1620 851,1623 852,1623 853,1624 853,1626 855,1628 855,1629 857,1631 857,1632 858,1633 858,1634 859,1635 859,1636 860,1637 860,1638 861,1638 862,1639 862,1641 863,1641 864,1642 864,1643 865,1643 866,1644 866,1645 867,1646 867,1647 868,1648 868,1649 869,1650 870,1650 871,1651 871,1654 873,1656 873,1659 874,1659 875,1660 875,1661 876,1662 876,1663 878,1665 878,1666 879,1666 880,1667 880,1668 881,1668 882,1669 882,1672 883,1672 884,1673 884,1674 885,1675 886,1675 887,1676 887,1679 889,1681 889,1683 890,1683 891,1684 891,1685 898,1692 898,1694 900,1696 900,1697 901,1697 902,1698 902,1701 903,1701 904,1702 904,1704 907,1707 907,1708 908,1708 909,1709 909,1710 910,1710 911,1711 911,1714 913,1716 913,1717 916,1720 916,1721 918,1723 918,1724 919,1724 920,1725 920,1727 922,1729 922,1731 924,1733 924,1734 925,1735 925,1737 926,1737 927,1738 927,1739 928,1739 929,1740 929,1741 931,1743 931,1744 933,1746 933,1747 934,1748 935,1748 936,1749 936,1750 937,1751 937,1752 938,1753 938,1755 939,1755 940,1756 940,1759 941,1759 942,1760 942,1761 943,1762 944,1762 945,1763 945,1766 946,1766 947,1767 947,1768 949,1770 949,1772 951,1774 951,1776 953,1778 953,1779 955,1779 956,1780 956,1784 957,1784 958,1785 958,1786 959,1786 960,1787 960,1789 962,1791 962,1792 963,1793 964,1793 965,1794 965,1797 969,1801 969,1803 971,1805 971,1806 972,1806 973,1807 973,1808 974,1809 974,1810 976,1812 976,1813 977,1813 978,1814 978,1817 979,1817 981,1819 981,1820 983,1822 984,1822 985,1823 985,1824 987,1826 987,1828 989,1830 989,1831 991,1833 991,1835 992,1836 992,1837 994,1837 995,1836 995,1631 994,1631 993,1630 993,1627 991,1625 991,1623 988,1620 988,1612 986,1610 986,1606 985,1606 984,1605 984,1601 982,1599 982,1595 981,1594 981,1593 980,1592 980,1589 979,1588 979,1585 977,1583 977,1580 975,1578 975,1574 973,1572 973,1567 971,1565 971,1562 970,1561 970,1560 969,1560 968,1559 968,1555 967,1554 967,1553 966,1552 966,1549 964,1547 964,1544 963,1544 962,1543 962,1537 960,1537 959,1536 959,1532 958,1532 957,1531 957,1524 956,1524 955,1523 955,1520 953,1518 953,1515 952,1515 951,1514 951,1511 950,1510 950,1508 949,1508 948,1507 948,1504 946,1502 946,1499 945,1499 944,1498 944,1494 943,1493 943,1492 942,1491 942,1490 941,1489 941,1488 940,1488 939,1487 939,1483 938,1483 937,1482 937,1477 936,1477 935,1476 935,1472 934,1472 933,1471 933,1466 932,1465 932,1464 930,1462 930,1459 928,1457 928,1453 927,1453 926,1452 926,1448 924,1446 924,1439 923,1438 923,1437 922,1436 922,1435 921,1434 921,1432 920,1432 919,1431 919,1426 917,1424 917,1419 916,1419 915,1418 915,1417 913,1415 913,1412 912,1411 912,1410 911,1410 910,1409 910,1403 909,1403 908,1402 908,1397 906,1395 906,1391 904,1389 904,1386 903,1385 902,1385 901,1384 901,1380 899,1378 899,1376 898,1376 897,1375 897,1370 895,1368 895,1365 894,1364 894,1363 893,1362 893,1360 892,1359 892,1357 890,1355 890,1350 888,1348 888,1343 887,1343 886,1342 886,1339 885,1338 885,1336 884,1335 884,1334 883,1333 883,1331 882,1331 881,1330 881,1322 880,1322 879,1321 879,1318 878,1318 877,1317 877,1316 875,1314 875,1311 874,1310 874,1309 872,1307 872,1301 870,1299 870,1298 869,1298 868,1297 868,1294 867,1293 866,1293 865,1292 865,1285 864,1284 864,1281 863,1280 863,1278 862,1278 861,1277 861,1271 860,1271 859,1270 859,1267 857,1265 857,1264 856,1263 856,1262 855,1261 855,1260 854,1259 854,1257 852,1255 852,1247 851,1247 850,1246 850,1243 848,1241 848,1239 847,1238 847,1237 846,1237 845,1236 845,1231 844,1231 843,1230 843,1226 842,1226 841,1225 841,1223 839,1221 839,1217 838,1216 837,1216 836,1215 836,1209 834,1207 834,1204 832,1202 832,1196 830,1194 830,1191 829,1191 828,1190 828,1187 827,1186 826,1186 825,1185 825,1179 824,1179 823,1178 823,1173 822,1173 821,1172 821,1168 819,1166 819,1164 818,1163 818,1162 817,1162 816,1161 816,1157 815,1156 815,1155 814,1154 814,1151 812,1149 812,1145 810,1143 810,1137 809,1136 809,1135 808,1135 807,1134 807,1128 806,1128 805,1127 805,1120 803,1118 803,1090 805,1088 805,1082 807,1080 807,1077 808,1076 809,1076 810,1075 810,1072 811,1071 812,1071 812,1070 814,1068 814,1066 815,1065 816,1065 816,1063 817,1062 819,1062 819,1061 820,1060 821,1060 821,1059 822,1058 823,1058 823,1057 824,1056 825,1056 826,1055 827,1055 827,1054 828,1053 830,1053 832,1051 834,1051 834,1050 835,1049 838,1049 840,1047 843,1047 844,1046 845,1046 846,1045 847,1045 848,1044 850,1044 850,1043 851,1042 854,1042 854,1041 855,1040 858,1040 860,1038 861,1038 862,1037 863,1037 864,1036 867,1036 868,1035 869,1035 871,1033 875,1033 877,1031 881,1031 881,1030 882,1029 884,1029 886,1027 889,1027 890,1026 890,1025 891,1024 897,1024 897,1023 898,1022 901,1022 901,1021 902,1020 906,1020 908,1018 910,1018 911,1017 913,1017 914,1016 917,1016 918,1015 919,1015 921,1013 924,1013 926,1011 929,1011 930,1010 930,1009 931,1008 935,1008 936,1007 937,1007 938,1006 939,1006 939,1005 940,1004 945,1004 947,1002 950,1002 950,1001 951,1000 955,1000 956,999 957,999 958,998 959,998 960,997 963,997 965,995 968,995 968,994 969,993 973,993 973,992 974,991 979,991 979,989 980,988 986,988 987,987 988,987 989,986 992,986 992,985 993,984 997,984 997,983 998,982 1002,982 1002,981 1003,980 1006,980 1007,979 1008,979 1008,978 1009,977 1013,977 1013,976 1014,975 1021,975 1023,973 1035,973 1037,975 1042,975 1043,976 1043,977 1047,977 1048,978 1048,979 1049,979 1050,980 1053,980 1054,981 1054,982 1058,982 1060,984 1065,984 1067,986 1069,986 1070,987 1071,987 1072,988 1075,988 1078,991 1081,991 1083,993 1087,993 1088,994 1088,995 1092,995 1093,996 1093,997 1096,997 1097,998 1098,998 1099,999 1100,999 1101,1000 1103,1000 1104,1001 1104,1002 1109,1002 1110,1003 1110,1004 1116,1004 1117,1005 1117,1006 1119,1006 1120,1007 1122,1007 1123,1008 1125,1008 1126,1009 1127,1009 1128,1010 1128,1011 1130,1011 1132,1013 1134,1013 1136,1015 1138,1015 1139,1016 1141,1016 1142,1017 1144,1017 1145,1018 1147,1018 1148,1019 1148,1020 1151,1020 1153,1022 1156,1022 1158,1024 1163,1024 1164,1025 1164,1026 1165,1026 1166,1027 1168,1027 1169,1028 1170,1028 1171,1029 1173,1029 1175,1031 1178,1031 1180,1033 1185,1033 1186,1034 1186,1035 1187,1035 1188,1036 1190,1036 1191,1037 1193,1037 1196,1040 1201,1040 1203,1042 1207,1042 1208,1043 1208,1044 1209,1044 1210,1045 1212,1045 1213,1046 1213,1047 1216,1047 1218,1049 1221,1049 1222,1050 1222,1051 1225,1051 1226,1052 1226,1053 1228,1053 1229,1054 1229,1055 1230,1055 1231,1056 1232,1056 1233,1057 1233,1058 1234,1058 1235,1059 1235,1060 1236,1060 1237,1061 1237,1062 1239,1062 1240,1063 1240,1065 1241,1065 1242,1066 1242,1067 1243,1067 1244,1068 1244,1071 1245,1071 1246,1072 1246,1073 1248,1075 1248,1077 1249,1078 1249,1079 1251,1081 1251,1086 1252,1086 1253,1087 1253,1099 1254,1099 1255,1100 1253,1102 1253,1123 1252,1124 1251,1124 1251,1129 1250,1130 1249,1130 1249,1131 1248,1132 1248,1136 1246,1138 1246,1143 1245,1144 1244,1144 1244,1151 1242,1153 1242,1158 1240,1160 1240,1165 1239,1166 1238,1166 1237,1167 1237,1173 1235,1175 1235,1178 1233,1180 1233,1183 1231,1185 1231,1187 1229,1189 1229,1190 1228,1191 1228,1194 1227,1195 1226,1195 1226,1199 1225,1200 1224,1200 1224,1205 1222,1207 1222,1210 1221,1211 1220,1211 1220,1212 1219,1213 1219,1215 1217,1217 1217,1221 1215,1223 1215,1227 1213,1229 1213,1232 1212,1233 1211,1233 1211,1242 1208,1245 1208,1248 1207,1249 1206,1249 1206,1254 1204,1256 1204,1261 1203,1262 1202,1262 1202,1265 1201,1266 1200,1266 1199,1267 1199,1270 1198,1271 1197,1271 1197,1275 1196,1276 1195,1276 1195,1281 1194,1282 1193,1282 1193,1286 1192,1287 1192,1288 1190,1290 1190,1292 1188,1294 1188,1295 1187,1296 1187,1297 1186,1298 1186,1304 1185,1305 1184,1305 1184,1307 1183,1308 1183,1309 1182,1310 1182,1315 1181,1316 1180,1316 1179,1317 1179,1321 1177,1323 1177,1325 1175,1327 1175,1333 1174,1334 1173,1334 1172,1335 1172,1337 1170,1339 1170,1342 1169,1343 1168,1343 1168,1348 1166,1350 1166,1355 1165,1356 1164,1356 1164,1358 1163,1359 1163,1361 1162,1362 1162,1365 1161,1366 1161,1369 1159,1371 1159,1375 1158,1376 1157,1376 1157,1382 1156,1383 1155,1383 1155,1385 1154,1386 1154,1388 1153,1389 1153,1390 1152,1391 1152,1393 1150,1395 1150,1397 1148,1399 1148,1404 1147,1405 1146,1405 1146,1411 1145,1412 1144,1412 1144,1413 1143,1414 1143,1416 1142,1417 1142,1418 1141,1419 1141,1420 1140,1421 1139,1421 1139,1427 1138,1428 1137,1428 1137,1433 1136,1434 1135,1434 1135,1436 1134,1437 1134,1438 1133,1439 1133,1440 1132,1441 1132,1445 1131,1446 1130,1446 1130,1453 1129,1454 1128,1454 1128,1460 1127,1461 1126,1461 1126,1463 1125,1464 1125,1467 1123,1469 1123,1473 1121,1475 1121,1478 1119,1480 1119,1485 1118,1486 1117,1486 1117,1491 1116,1492 1115,1492 1114,1493 1114,1498 1112,1500 1112,1502 1110,1504 1110,1509 1109,1510 1108,1510 1108,1514 1107,1515 1106,1515 1106,1516 1105,1517 1105,1520 1103,1522 1103,1527 1101,1529 1101,1534 1100,1535 1099,1535 1099,1540 1098,1541 1097,1541 1097,1543 1096,1544 1096,1545 1095,1546 1095,1547 1094,1548 1094,1551 1092,1553 1092,1558 1090,1560 1090,1563 1088,1565 1088,1569 1085,1572 1085,1576 1083,1578 1083,1581 1082,1582 1081,1582 1081,1585 1079,1587 1079,1592 1078,1593 1077,1593 1076,1594 1076,1597 1074,1599 1074,1603 1073,1604 1072,1604 1072,1608 1071,1609 1070,1609 1070,1614 1068,1616 1068,1621 1067,1622 1067,1626 1065,1628 1065,1832 1066,1833 1069,1833 1069,1832 1070,1831 1071,1831 1071,1829 1072,1828 1073,1828 1073,1826 1075,1824 1076,1824 1076,1821 1080,1817 1080,1816 1082,1814 1082,1812 1083,1811 1084,1811 1085,1810 1085,1808 1087,1806 1087,1803 1088,1802 1089,1802 1089,1801 1093,1797 1093,1796 1094,1795 1094,1794 1095,1793 1096,1793 1096,1792 1098,1790 1098,1787 1099,1786 1100,1786 1100,1785 1101,1784 1102,1784 1102,1781 1104,1779 1105,1779 1105,1778 1107,1776 1107,1774 1108,1773 1109,1773 1109,1770 1110,1769 1111,1769 1111,1767 1112,1766 1113,1766 1114,1765 1114,1764 1116,1762 1116,1760 1117,1759 1118,1759 1118,1758 1119,1757 1120,1757 1120,1754 1121,1753 1122,1753 1122,1752 1123,1751 1123,1749 1124,1748 1125,1748 1125,1747 1127,1745 1127,1743 1129,1741 1129,1739 1131,1737 1131,1736 1132,1735 1133,1735 1134,1734 1134,1731 1135,1730 1136,1730 1136,1729 1137,1728 1138,1728 1138,1727 1140,1725 1140,1723 1142,1721 1143,1721 1143,1718 1144,1717 1145,1717 1145,1716 1146,1715 1147,1715 1147,1713 1148,1712 1149,1712 1149,1711 1150,1710 1150,1709 1151,1708 1152,1708 1152,1707 1154,1705 1154,1704 1155,1703 1155,1702 1156,1701 1156,1700 1157,1699 1158,1699 1158,1698 1159,1697 1159,1696 1160,1695 1160,1693 1161,1692 1162,1692 1163,1691 1163,1689 1164,1688 1165,1688 1165,1686 1166,1685 1167,1685 1167,1683 1170,1680 1170,1679 1172,1677 1172,1676 1173,1675 1174,1675 1174,1673 1175,1672 1176,1672 1176,1670 1179,1667 1179,1666 1180,1665 1180,1664 1181,1663 1181,1662 1182,1661 1183,1661 1183,1659 1185,1657 1185,1656 1188,1653 1188,1651 1189,1650 1190,1650 1190,1648 1191,1647 1192,1647 1192,1644 1193,1643 1194,1643 1194,1640 1195,1639 1196,1639 1196,1637 1197,1636 1198,1636 1199,1635 1199,1633 1200,1632 1201,1632 1201,1631 1202,1630 1203,1630 1203,1627 1204,1626 1205,1626 1205,1624 1206,1623 1207,1623 1208,1622 1208,1620 1210,1618 1210,1617 1211,1616 1212,1616 1212,1613 1213,1612 1214,1612 1214,1611 1215,1610 1216,1610 1216,1609 1218,1607 1218,1606 1219,1605 1219,1604 1220,1603 1221,1603 1221,1602 1223,1600 1223,1598 1225,1596 1225,1595 1226,1594 1227,1594 1228,1593 1228,1591 1230,1589 1230,1587 1232,1585 1232,1584 1233,1583 1234,1583 1234,1581 1237,1578 1237,1577 1238,1576 1239,1576 1239,1574 1240,1573 1241,1573 1241,1571 1243,1569 1243,1568 1246,1565 1246,1564 1248,1562 1248,1561 1249,1560 1249,1559 1250,1558 1250,1557 1251,1556 1252,1556 1252,1553 1254,1551 1254,1548 1255,1547 1257,1547 1257,1545 1259,1543 1259,1542 1261,1540 1261,1539 1262,1538 1263,1538 1263,1535 1264,1534 1265,1534 1268,1531 1268,1528 1269,1527 1270,1527 1270,1526 1272,1524 1272,1521 1273,1520 1275,1520 1275,1519 1276,1518 1277,1518 1277,1517 1278,1516 1278,1515 1279,1514 1279,1513 1280,1512 1281,1512 1281,1510 1283,1508 1283,1505 1284,1504 1285,1504 1286,1503 1286,1501 1287,1500 1288,1500 1288,1498 1290,1496 1290,1495 1291,1494 1292,1494 1292,1492 1293,1491 1294,1491 1294,1490 1295,1489 1295,1488 1296,1487 1297,1487 1297,1485 1298,1484 1299,1484 1299,1481 1300,1480 1301,1480 1301,1479 1302,1478 1303,1478 1303,1476 1306,1473 1306,1472 1307,1471 1308,1471 1308,1468 1309,1467 1310,1467 1310,1466 1312,1464 1312,1463 1315,1460 1315,1459 1316,1458 1317,1458 1317,1455 1319,1453 1319,1452 1320,1451 1321,1451 1321,1450 1322,1449 1322,1448 1324,1446 1324,1445 1325,1444 1326,1444 1326,1442 1328,1440 1328,1438 1329,1437 1330,1437 1330,1436 1331,1435 1331,1434 1332,1433 1332,1431 1334,1429 1335,1429 1335,1427 1336,1426 1337,1426 1337,1425 1338,1424 1339,1424 1339,1423 1340,1422 1340,1421 1342,1419 1342,1418 1343,1417 1343,1416 1344,1415 1344,1414 1345,1413 1346,1413 1346,1410 1347,1409 1348,1409 1348,1407 1349,1406 1351,1406 1351,1405 1352,1404 1352,1403 1353,1402 1353,1401 1355,1399 1355,1396 1356,1395 1357,1395 1357,1393 1362,1388 1362,1387 1363,1386 1364,1386 1364,1384 1366,1382 1366,1381 1367,1380 1368,1380 1368,1379 1371,1376 1371,1374 1372,1373 1373,1373 1373,1372 1375,1370 1375,1369 1377,1367 1377,1365 1378,1364 1379,1364 1380,1363 1380,1361 1382,1359 1382,1358 1384,1356 1384,1354 1385,1353 1386,1353 1386,1351 1389,1348 1389,1347 1391,1345 1391,1343 1393,1341 1393,1340 1394,1339 1395,1339 1395,1336 1396,1335 1397,1335 1398,1334 1398,1333 1400,1331 1400,1329 1401,1328 1402,1328 1402,1327 1404,1325 1404,1323 1406,1321 1406,1320 1407,1319 1407,1318 1408,1317 1409,1317 1409,1316 1411,1314 1411,1312 1413,1310 1413,1309 1414,1308 1415,1308 1415,1305 1417,1303 1418,1303 1418,1302 1420,1300 1420,1298 1421,1297 1422,1297 1422,1296 1424,1294 1424,1293 1426,1291 1426,1289 1427,1288 1429,1288 1429,1285 1431,1283 1431,1282 1432,1281 1433,1281 1433,1279 1435,1277 1435,1275 1436,1274 1437,1274 1438,1273 1438,1271 1439,1270 1440,1270 1440,1269 1441,1268 1442,1268 1442,1266 1444,1264 1444,1263 1446,1261 1447,1261 1447,1259 1448,1258 1449,1258 1449,1255 1450,1254 1451,1254 1451,1253 1452,1252 1453,1252 1453,1250 1455,1248 1455,1246 1456,1245 1457,1245 1457,1244 1458,1243 1458,1242 1459,1241 1460,1241 1460,1239 1461,1238 1462,1238 1462,1236 1464,1234 1464,1233 1465,1232 1465,1231 1466,1230 1467,1230 1467,1229 1468,1228 1469,1228 1469,1226 1471,1224 1471,1222 1472,1221 1473,1221 1474,1220 1474,1217 1476,1215 1476,1213 1477,1212 1478,1212 1478,1210 1479,1209 1480,1209 1480,1206 1481,1205 1482,1205 1484,1203 1484,1202 1487,1199 1487,1197 1488,1196 1489,1196 1489,1195 1490,1194 1491,1194 1491,1192 1494,1189 1494,1188 1495,1187 1496,1187 1496,1184 1497,1183 1498,1183 1498,1181 1500,1179 1500,1177 1501,1176 1502,1176 1504,1174 1504,1173 1505,1172 1505,1171 1507,1169 1507,1168 1508,1167 1509,1167 1509,1164 1510,1163 1511,1163 1511,1161 1512,1160 1512,1159 1514,1157 1514,1155 1515,1154 1516,1154 1516,1152 1517,1151 1518,1151 1518,1148 1519,1147 1520,1147 1520,1146 1521,1145 1522,1145 1522,1144 1523,1143 1523,1141 1524,1140 1525,1140 1525,1139 1526,1138 1527,1138 1527,1135 1528,1134 1529,1134 1529,1132 1530,1131 1531,1131 1532,1130 1532,1128 1533,1127 1534,1127 1534,1124 1535,1123 1536,1123 1536,1121 1538,1119 1538,1117 1539,1116 1540,1116 1541,1115 1541,1114 1542,1113 1542,1112 1543,1111 1543,1110 1544,1109 1545,1109 1545,1107 1546,1106 1547,1106 1547,1103 1548,1102 1549,1102 1549,1099 1550,1098 1551,1098 1552,1097 1552,1095 1554,1093 1554,1092 1556,1090 1556,1087 1558,1085 1558,1083 1559,1082 1560,1082 1560,1081 1561,1080 1561,1078 1563,1076 1563,1074 1565,1072 1565,1070 1566,1069 1567,1069 1567,1062 1568,1061 1569,1061 1569,1059 1570,1058 1570,1054 1572,1052 1572,1047 1573,1046 1574,1046 1574,1028 1575,1027 1574,1026 1574,1004 1572,1002 1572,997 1570,995 1570,990 1569,989 1569,987 1568,987 1567,986 1567,983 1566,983 1565,982 1565,979 1561,975 1561,972 1560,971 1559,971 1558,970 1558,969 1557,969 1556,968 1556,967 1555,967 1554,966 1554,965 1553,965 1552,964 1552,963 1551,962 1550,962 1549,961 1549,960 1548,960 1547,959 1547,958 1546,958 1545,957 1545,956 1544,956 1543,955 1543,954 1542,954 1541,953 1539,953 1538,952 1538,951 1537,951 1536,950 1536,949 1534,949 1532,947 1530,947 1529,946 1529,945 1527,945 1524,942 1521,942 1520,941 1520,940 1518,940 1516,938 1510,938 1509,937 1509,936 1505,936 1504,935 1504,934 1503,934 1502,933 1497,933 1495,931 1492,931 1491,930 1491,929 1488,929 1487,928 1487,927 1483,927 1482,926 1482,925 1481,924 1478,924 1477,923 1476,923 1475,922 1472,922 1470,920 1463,920 1462,919 1462,918 1459,918 1457,916 1453,916 1450,913 1445,913 1444,912 1444,911 1438,911 1437,910 1437,909 1433,909 1431,907 1425,907 1423,905 1422,905 1421,904 1416,904 1414,902 1411,902 1410,901 1410,900 1405,900 1403,898 1400,898 1399,897 1394,897 1392,895 1389,895 1388,894 1388,893 1385,893 1384,892 1383,892 1382,891 1378,891 1377,890 1377,889 1375,889 1374,888 1372,888 1371,887 1365,887 1364,886 1364,885 1363,884 1358,884 1357,883 1357,882 1353,882 1352,881 1352,880 1346,880 1344,878 1341,878 1340,877 1338,877 1336,875 1335,875 1334,874 1333,874 1332,873 1328,873 1326,871 1323,871 1321,869 1320,869 1319,868 1319,867 1314,867 1313,866 1309,866 1308,865 1308,864 1306,864 1305,863 1304,863 1303,862 1297,862 1296,861 1296,860 1293,860 1292,859 1289,859 1288,858 1286,858 1285,857 1284,857 1282,855 1279,855 1277,853 1273,853 1272,852 1272,851 1271,851 1270,850 1270,849 1269,849 1268,848 1264,848 1263,847 1263,846 1260,846 1259,845 1259,842 1260,841 1263,841 1263,840 1264,839 1265,839 1266,838 1266,837 1267,836 1272,836 1272,835 1273,834 1276,834 1278,832 1281,832 1281,831 1282,830 1284,830 1286,828 1288,828 1289,827 1290,827 1292,825 1295,825 1295,824 1296,823 1299,823 1299,822 1300,821 1306,821 1306,820 1307,819 1308,819 1309,818 1310,818 1310,817 1311,816 1315,816 1315,815 1316,814 1319,814 1319,813 1320,812 1325,812 1327,810 1332,810 1332,808 1333,807 1337,807 1337,806 1338,805 1341,805 1343,803 1346,803 1346,802 1347,801 1352,801 1353,800 1354,800 1355,799 1356,799 1357,798 1357,797 1358,796 1364,796 1364,795 1365,794 1368,794 1368,793 1369,792 1372,792 1374,790 1376,790 1377,789 1377,788 1378,787 1382,787 1382,786 1383,785 1387,785 1389,783 1392,783 1394,781 1398,781 1400,779 1401,779 1402,778 1405,778 1407,776 1411,776 1411,775 1412,774 1417,774 1419,772 1421,772 1423,770 1428,770 1431,767 1433,767 1433,766 1434,765 1439,765 1441,763 1443,763 1445,761 1448,761 1449,760 1450,760 1452,758 1454,758 1456,756 1461,756 1463,754 1464,754 1466,752 1470,752 1472,750 1473,750 1474,749 1475,749 1477,747 1480,747 1482,745 1486,745 1488,743 1489,743 1490,742 1491,742 1492,741 1494,741 1495,740 1496,740 1496,739 1497,738 1500,738 1500,737 1501,736 1506,736 1508,734 1509,734 1510,733 1511,733 1512,732 1514,732 1515,731 1516,731 1516,730 1517,729 1520,729 1520,728 1521,727 1524,727 1524,726 1525,725 1530,725 1532,723 1534,723 1535,722 1536,722 1537,721 1538,721 1539,720 1540,720 1542,718 1547,718 1547,717 1548,716 1553,716 1554,715 1554,714 1555,713 1558,713 1559,712 1562,712 1563,711 1565,711 1565,710 1566,709 1567,709 1567,708 1568,707 1574,707 1574,706 1575,705 1578,705 1578,704 1579,703 1582,703 1583,702 1583,701 1584,700 1587,700 1587,699 1588,698 1594,698 1595,699 1595,700 1594,701 1593,701 1593,702 1592,703 1591,703 1590,704 1590,706 1588,708 1588,709 1587,710 1586,710 1586,711 1585,712 1584,712 1584,715 1583,716 1582,716 1581,717 1581,718 1580,719 1579,719 1579,720 1578,721 1577,721 1577,724 1575,726 1575,727 1574,728 1573,728 1573,729 1572,730 1572,731 1570,733 1570,736 1569,737 1568,737 1568,738 1566,740 1566,743 1565,744 1564,744 1564,747 1563,748 1562,748 1561,749 1561,750 1560,751 1560,752 1559,753 1559,756 1558,757 1557,757 1557,758 1556,759 1555,759 1555,760 1553,762 1553,763 1552,764 1552,765 1550,767 1550,768 1548,770 1548,772 1547,773 1546,773 1546,776 1545,777 1544,777 1541,780 1541,783 1539,785 1539,787 1538,788 1537,788 1537,789 1536,790 1535,790 1535,794 1534,795 1533,795 1532,796 1532,799 1530,801 1530,803 1529,804 1528,804 1526,806 1526,809 1525,810 1524,810 1523,811 1523,812 1519,816 1519,818 1518,819 1517,819 1517,823 1516,824 1515,824 1512,827 1512,828 1509,831 1508,831 1508,833 1506,835 1506,836 1504,838 1503,838 1503,839 1502,840 1501,840 1501,841 1500,842 1499,842 1499,844 1498,845 1497,845 1497,848 1496,849 1495,849 1495,850 1494,851 1494,856 1495,857 1496,857 1498,859 1502,859 1504,861 1507,861 1508,862 1508,863 1510,863 1512,865 1516,865 1517,866 1517,868 1520,868 1521,869 1521,870 1525,870 1526,871 1526,872 1529,872 1530,873 1530,874 1531,874 1532,875 1534,875 1535,876 1535,877 1538,877 1540,879 1543,879 1545,881 1549,881 1550,882 1550,883 1551,883 1552,884 1554,884 1555,885 1556,885 1557,886 1560,886 1562,888 1563,888 1564,889 1565,889 1566,890 1569,890 1570,891 1570,892 1571,892 1572,893 1576,893 1578,895 1579,895 1580,896 1580,897 1585,897 1586,898 1586,899 1589,899 1591,901 1596,901 1597,902 1597,903 1598,904 1599,904 1600,905 1601,905 1602,906 1603,906 1605,908 1609,908 1611,910 1614,910 1615,911 1615,912 1616,913 1619,913 1620,914 1621,914 1622,915 1623,915 1624,916 1624,917 1628,917 1629,918 1629,919 1643,919 1643,918 1644,917 1645,917 1648,914 1648,913 1649,912 1650,912 1650,909 1651,908 1652,908 1652,906 1653,905 1654,905 1654,904 1655,903 1655,902 1656,901 1656,900 1659,897 1659,895 1660,894 1661,894 1661,893 1662,892 1663,892 1663,891 1664,890 1664,889 1665,888 1666,888 1666,886 1667,885 1668,885 1668,882 1669,881 1670,881 1670,878 1671,877 1672,877 1672,875 1673,874 1674,874 1675,873 1675,872 1677,870 1677,869 1679,867 1679,866 1680,865 1681,865 1681,862 1682,861 1683,861 1684,860 1684,858 1686,856 1686,855 1687,854 1688,854 1688,853 1689,852 1690,852 1690,849 1691,848 1692,848 1692,847 1694,845 1694,844 1695,843 1695,842 1697,840 1697,837 1698,836 1699,836 1699,835 1700,834 1701,834 1701,833 1702,832 1703,832 1703,831 1705,829 1705,828 1706,827 1706,826 1707,825 1708,825 1708,824 1709,823 1710,823 1710,820 1711,819 1712,819 1713,818 1713,817 1715,815 1715,813 1716,812 1717,812 1717,811 1718,810 1719,810 1719,808 1720,807 1721,807 1721,805 1724,802 1724,801 1726,799 1726,797 1727,796 1728,796 1728,794 1729,793 1730,793 1730,791 1731,790 1732,790 1733,789 1733,788 1734,787 1734,786 1735,785 1735,784 1736,783 1737,783 1737,782 1738,781 1739,781 1739,777 1740,776 1742,776 1742,775 1743,774 1743,773 1744,772 1744,771 1746,769 1746,768 1748,766 1748,765 1750,763 1750,761 1751,760 1753,760 1753,757 1755,755 1755,753 1757,751 1757,750 1758,749 1759,749 1759,746 1760,745 1761,745 1762,744 1762,743 1763,742 1764,742 1764,740 1766,738 1766,737 1767,736 1768,736 1768,735 1769,734 1769,733 1771,731 1771,730 1773,728 1773,726 1774,725 1775,725 1775,723 1776,722 1777,722 1777,721 1778,720 1779,720 1779,718 1782,715 1782,713 1784,711 1784,710 1785,709 1786,709 1786,706 1787,705 1788,705 1789,704 1789,703 1791,701 1791,699 1792,698 1793,698 1793,697 1795,695 1795,692 1796,691 1797,691 1799,689 1799,688 1800,687 1800,685 1801,684 1802,684 1802,683 1803,682 1804,682 1804,681 1807,678 1807,677 1809,675 1809,674 1810,673 1811,673 1811,670 1812,669 1813,669 1813,667 1814,666 1815,666 1815,663 1816,662 1817,662 1818,661 1818,660 1820,658 1820,657 1822,655 1822,654 1823,653 1824,653 1824,652 1825,651 1826,651 1826,649 1827,648 1827,647 1829,645 1829,643 1830,642 1831,642 1831,640 1832,639 1833,639 1833,636 1834,635 1836,635 1836,634 1838,632 1838,630 1840,628 1840,625 1841,624 1842,624 1842,623 1844,621 1844,619 1845,618 1846,618 1847,617 1847,616 1848,615 1849,615 1849,614 1850,613 1851,613 1851,611 1852,610 1853,610 1853,607 1854,606 1855,606 1856,605 1856,603 1858,601 1858,599 1860,597 1860,596 1861,595 1862,595 1862,594 1863,593 1864,593 1864,592 1866,590 1866,589 1867,588 1867,587 1868,586 1869,586 1869,584 1871,582 1871,581 1873,579 1873,578 1874,577 1875,577 1876,576 1876,575 1878,573 1878,571 1879,570 1880,570 1880,568 1882,566 1882,565 1884,563 1884,562 1885,561 1885,560 1886,559 1887,559 1887,558 1889,556 1889,554 1890,553 1891,553 1891,551 1894,548 1894,547 1896,545 1896,544 1897,543 1897,542 1898,541 1898,540 1899,539 1900,539 1900,538 1901,537 1902,537 1902,535 1903,534 1904,534 1904,533 1905,532 1905,531 1906,530 1907,530 1907,529 1909,527 1909,525 1910,524 1911,524 1911,522 1912,521 1913,521 1914,520 1914,518 1916,516 1916,515 1917,514 1918,514 1918,511 1919,510 1920,510 1920,509 1922,507 1922,506 1925,503 1925,502 1926,501 1927,501 1927,498 1928,497 1929,497 1929,496 1930,495 1930,493 1933,490 1933,489 1934,488 1934,487 1936,485 1936,484 1937,483 1938,483 1938,482 1942,478 1942,477 1943,476 1943,475 1944,474 1945,474 1945,471 1946,470 1947,470 1947,468 1948,467 1949,467 1949,466 1950,465 1950,464 1954,460 1954,458 1956,456 1956,454 1961,449 1961,448 1962,447 1962,446 1963,445 1963,444 1965,442 1965,440 1967,438 1967,437 1968,436 1969,436 1970,435 1970,433 1974,429 1974,426 1975,425 1976,425 1976,424 1979,421 1979,419 1980,418 1981,418 1981,417 1982,416 1983,416 1983,414 1985,412 1985,410 1986,409 1987,409 1987,408 1988,407 1988,406 1992,402 1992,401 1994,399 1994,397 1995,396 1996,396 1996,394 1999,391 1999,390 2000,389 2000,388 2001,387 2001,386 2002,385 2003,385 2003,382 2004,381 2005,381 2005,379 2006,378 2007,378 2008,377 2008,375 2006,373" /></svg>